<mxfile host="app.diagrams.net" modified="2023-10-03T10:51:21.659Z" agent="Mozilla/5.0 (Windows NT 10.0; Win64; x64) AppleWebKit/537.36 (KHTML, like Gecko) Chrome/117.0.0.0 Safari/537.36 Edg/117.0.2045.47" etag="I8jnNnL1rZn6TNr3aPqH" version="21.8.1" type="github">
  <diagram name="第 1 页" id="yR9HOdzIv7jTi1fBP0-I">
    <mxGraphModel dx="922" dy="539" grid="1" gridSize="10" guides="1" tooltips="1" connect="1" arrows="1" fold="1" page="1" pageScale="1" pageWidth="827" pageHeight="1169" math="0" shadow="0">
      <root>
        <mxCell id="0" />
        <mxCell id="1" parent="0" />
        <mxCell id="huxlr9JHoWnAr4w4-cFv-16" style="edgeStyle=orthogonalEdgeStyle;rounded=0;orthogonalLoop=1;jettySize=auto;html=1;exitX=1;exitY=0.5;exitDx=0;exitDy=0;entryX=0;entryY=0.5;entryDx=0;entryDy=0;" edge="1" parent="1" source="huxlr9JHoWnAr4w4-cFv-1" target="huxlr9JHoWnAr4w4-cFv-3">
          <mxGeometry relative="1" as="geometry" />
        </mxCell>
        <mxCell id="huxlr9JHoWnAr4w4-cFv-1" value="&lt;font style=&quot;font-size: 18px;&quot;&gt;80x80x4&lt;/font&gt;" style="rounded=1;whiteSpace=wrap;html=1;fillColor=#dae8fc;strokeColor=#6c8ebf;" vertex="1" parent="1">
          <mxGeometry x="230" y="100" width="90" height="90" as="geometry" />
        </mxCell>
        <mxCell id="huxlr9JHoWnAr4w4-cFv-17" style="edgeStyle=orthogonalEdgeStyle;rounded=0;orthogonalLoop=1;jettySize=auto;html=1;exitX=1;exitY=0.5;exitDx=0;exitDy=0;entryX=0;entryY=0.5;entryDx=0;entryDy=0;" edge="1" parent="1" source="huxlr9JHoWnAr4w4-cFv-3" target="huxlr9JHoWnAr4w4-cFv-4">
          <mxGeometry relative="1" as="geometry" />
        </mxCell>
        <mxCell id="huxlr9JHoWnAr4w4-cFv-3" value="&lt;font style=&quot;font-size: 14px;&quot;&gt;20x20x32&lt;/font&gt;" style="rounded=1;whiteSpace=wrap;html=1;fillColor=#dae8fc;strokeColor=#6c8ebf;" vertex="1" parent="1">
          <mxGeometry x="379" y="110" width="70" height="70" as="geometry" />
        </mxCell>
        <mxCell id="huxlr9JHoWnAr4w4-cFv-18" style="edgeStyle=orthogonalEdgeStyle;rounded=0;orthogonalLoop=1;jettySize=auto;html=1;exitX=1;exitY=0.5;exitDx=0;exitDy=0;entryX=0;entryY=0.5;entryDx=0;entryDy=0;" edge="1" parent="1" source="huxlr9JHoWnAr4w4-cFv-4" target="huxlr9JHoWnAr4w4-cFv-5">
          <mxGeometry relative="1" as="geometry" />
        </mxCell>
        <mxCell id="huxlr9JHoWnAr4w4-cFv-4" value="&lt;font style=&quot;font-size: 14px;&quot;&gt;10x10x32&lt;/font&gt;" style="rounded=1;whiteSpace=wrap;html=1;fillColor=#dae8fc;strokeColor=#6c8ebf;" vertex="1" parent="1">
          <mxGeometry x="510" y="110" width="70" height="70" as="geometry" />
        </mxCell>
        <mxCell id="huxlr9JHoWnAr4w4-cFv-19" style="edgeStyle=orthogonalEdgeStyle;rounded=0;orthogonalLoop=1;jettySize=auto;html=1;exitX=0.5;exitY=1;exitDx=0;exitDy=0;entryX=0.5;entryY=0;entryDx=0;entryDy=0;" edge="1" parent="1" source="huxlr9JHoWnAr4w4-cFv-5" target="huxlr9JHoWnAr4w4-cFv-10">
          <mxGeometry relative="1" as="geometry" />
        </mxCell>
        <mxCell id="huxlr9JHoWnAr4w4-cFv-5" value="&lt;font style=&quot;font-size: 14px;&quot;&gt;5x5x64&lt;/font&gt;" style="rounded=1;whiteSpace=wrap;html=1;fillColor=#dae8fc;strokeColor=#6c8ebf;" vertex="1" parent="1">
          <mxGeometry x="640" y="115" width="60" height="60" as="geometry" />
        </mxCell>
        <mxCell id="huxlr9JHoWnAr4w4-cFv-20" style="edgeStyle=orthogonalEdgeStyle;rounded=0;orthogonalLoop=1;jettySize=auto;html=1;exitX=0;exitY=0.5;exitDx=0;exitDy=0;entryX=1;entryY=0.5;entryDx=0;entryDy=0;" edge="1" parent="1" source="huxlr9JHoWnAr4w4-cFv-10" target="huxlr9JHoWnAr4w4-cFv-11">
          <mxGeometry relative="1" as="geometry" />
        </mxCell>
        <mxCell id="huxlr9JHoWnAr4w4-cFv-10" value="&lt;font style=&quot;font-size: 14px;&quot;&gt;3x3x64&lt;/font&gt;" style="rounded=1;whiteSpace=wrap;html=1;fillColor=#dae8fc;strokeColor=#6c8ebf;" vertex="1" parent="1">
          <mxGeometry x="640" y="320" width="60" height="60" as="geometry" />
        </mxCell>
        <mxCell id="huxlr9JHoWnAr4w4-cFv-21" style="edgeStyle=orthogonalEdgeStyle;rounded=0;orthogonalLoop=1;jettySize=auto;html=1;exitX=0;exitY=0.5;exitDx=0;exitDy=0;entryX=1;entryY=0.5;entryDx=0;entryDy=0;" edge="1" parent="1" source="huxlr9JHoWnAr4w4-cFv-11" target="huxlr9JHoWnAr4w4-cFv-12">
          <mxGeometry relative="1" as="geometry" />
        </mxCell>
        <mxCell id="huxlr9JHoWnAr4w4-cFv-11" value="&lt;font style=&quot;font-size: 14px;&quot;&gt;3x3x64&lt;/font&gt;" style="rounded=1;whiteSpace=wrap;html=1;fillColor=#dae8fc;strokeColor=#6c8ebf;" vertex="1" parent="1">
          <mxGeometry x="520" y="320" width="60" height="60" as="geometry" />
        </mxCell>
        <mxCell id="huxlr9JHoWnAr4w4-cFv-22" style="edgeStyle=orthogonalEdgeStyle;rounded=0;orthogonalLoop=1;jettySize=auto;html=1;exitX=0;exitY=0.5;exitDx=0;exitDy=0;entryX=1;entryY=0.5;entryDx=0;entryDy=0;" edge="1" parent="1" source="huxlr9JHoWnAr4w4-cFv-12" target="huxlr9JHoWnAr4w4-cFv-13">
          <mxGeometry relative="1" as="geometry" />
        </mxCell>
        <mxCell id="huxlr9JHoWnAr4w4-cFv-12" value="&lt;font style=&quot;font-size: 14px;&quot;&gt;2x2x64&lt;/font&gt;" style="rounded=1;whiteSpace=wrap;html=1;fillColor=#dae8fc;strokeColor=#6c8ebf;" vertex="1" parent="1">
          <mxGeometry x="389" y="320" width="60" height="60" as="geometry" />
        </mxCell>
        <mxCell id="huxlr9JHoWnAr4w4-cFv-23" style="edgeStyle=orthogonalEdgeStyle;rounded=0;orthogonalLoop=1;jettySize=auto;html=1;exitX=0;exitY=0.5;exitDx=0;exitDy=0;entryX=1;entryY=0.5;entryDx=0;entryDy=0;" edge="1" parent="1" source="huxlr9JHoWnAr4w4-cFv-13" target="huxlr9JHoWnAr4w4-cFv-14">
          <mxGeometry relative="1" as="geometry" />
        </mxCell>
        <mxCell id="huxlr9JHoWnAr4w4-cFv-13" value="&lt;font style=&quot;font-size: 14px;&quot;&gt;256&lt;br&gt;x&lt;br&gt;1&lt;br&gt;&lt;/font&gt;" style="rounded=1;whiteSpace=wrap;html=1;fillColor=#dae8fc;strokeColor=#6c8ebf;" vertex="1" parent="1">
          <mxGeometry x="280" y="310" width="40" height="80" as="geometry" />
        </mxCell>
        <mxCell id="huxlr9JHoWnAr4w4-cFv-24" style="edgeStyle=orthogonalEdgeStyle;rounded=0;orthogonalLoop=1;jettySize=auto;html=1;exitX=0;exitY=0.5;exitDx=0;exitDy=0;entryX=1;entryY=0.5;entryDx=0;entryDy=0;" edge="1" parent="1" source="huxlr9JHoWnAr4w4-cFv-14" target="huxlr9JHoWnAr4w4-cFv-15">
          <mxGeometry relative="1" as="geometry" />
        </mxCell>
        <mxCell id="huxlr9JHoWnAr4w4-cFv-14" value="&lt;font style=&quot;font-size: 14px;&quot;&gt;256&lt;br&gt;x&lt;br&gt;1&lt;br&gt;&lt;/font&gt;" style="rounded=1;whiteSpace=wrap;html=1;fillColor=#dae8fc;strokeColor=#6c8ebf;" vertex="1" parent="1">
          <mxGeometry x="190" y="310" width="40" height="80" as="geometry" />
        </mxCell>
        <mxCell id="huxlr9JHoWnAr4w4-cFv-15" value="&lt;font style=&quot;font-size: 14px;&quot;&gt;2&lt;br&gt;x&lt;br&gt;1&lt;br&gt;&lt;/font&gt;" style="rounded=1;whiteSpace=wrap;html=1;fillColor=#dae8fc;strokeColor=#6c8ebf;" vertex="1" parent="1">
          <mxGeometry x="110" y="310" width="40" height="80" as="geometry" />
        </mxCell>
        <mxCell id="huxlr9JHoWnAr4w4-cFv-25" value="&lt;font style=&quot;font-size: 14px;&quot;&gt;Conv&lt;br&gt;8x8x4x32&lt;br&gt;Stride: 4&lt;/font&gt;" style="text;html=1;strokeColor=none;fillColor=none;align=center;verticalAlign=middle;whiteSpace=wrap;rounded=0;" vertex="1" parent="1">
          <mxGeometry x="319" y="180" width="60" height="30" as="geometry" />
        </mxCell>
        <mxCell id="huxlr9JHoWnAr4w4-cFv-26" value="&lt;font style=&quot;font-size: 14px;&quot;&gt;Conv&lt;br&gt;4x4x32x64&lt;br&gt;Stride: 2&lt;/font&gt;" style="text;html=1;strokeColor=none;fillColor=none;align=center;verticalAlign=middle;whiteSpace=wrap;rounded=0;" vertex="1" parent="1">
          <mxGeometry x="580" y="180" width="60" height="30" as="geometry" />
        </mxCell>
        <mxCell id="huxlr9JHoWnAr4w4-cFv-27" value="&lt;span style=&quot;font-size: 14px;&quot;&gt;2x2&lt;br&gt;&lt;/span&gt;Max Pooling" style="text;html=1;strokeColor=none;fillColor=none;align=center;verticalAlign=middle;whiteSpace=wrap;rounded=0;" vertex="1" parent="1">
          <mxGeometry x="445" y="180" width="71" height="30" as="geometry" />
        </mxCell>
        <mxCell id="huxlr9JHoWnAr4w4-cFv-28" value="&lt;font style=&quot;font-size: 14px;&quot;&gt;Conv&lt;br&gt;3x3x64x64&lt;br&gt;Stride: 1&lt;/font&gt;" style="text;html=1;strokeColor=none;fillColor=none;align=center;verticalAlign=middle;whiteSpace=wrap;rounded=0;" vertex="1" parent="1">
          <mxGeometry x="580" y="290" width="60" height="30" as="geometry" />
        </mxCell>
        <mxCell id="huxlr9JHoWnAr4w4-cFv-29" value="&lt;span style=&quot;font-size: 14px;&quot;&gt;2x2&lt;br&gt;&lt;/span&gt;Max Pooling" style="text;html=1;strokeColor=none;fillColor=none;align=center;verticalAlign=middle;whiteSpace=wrap;rounded=0;" vertex="1" parent="1">
          <mxGeometry x="449" y="291" width="71" height="30" as="geometry" />
        </mxCell>
        <mxCell id="huxlr9JHoWnAr4w4-cFv-30" value="&lt;span style=&quot;font-size: 14px;&quot;&gt;2x2&lt;br&gt;&lt;/span&gt;Max Pooling" style="text;html=1;strokeColor=none;fillColor=none;align=center;verticalAlign=middle;whiteSpace=wrap;rounded=0;" vertex="1" parent="1">
          <mxGeometry x="670" y="230" width="71" height="30" as="geometry" />
        </mxCell>
        <mxCell id="huxlr9JHoWnAr4w4-cFv-31" value="&lt;span style=&quot;font-size: 14px;&quot;&gt;Reshape&lt;br&gt;&lt;/span&gt;" style="text;html=1;strokeColor=none;fillColor=none;align=center;verticalAlign=middle;whiteSpace=wrap;rounded=0;" vertex="1" parent="1">
          <mxGeometry x="321" y="292" width="71" height="30" as="geometry" />
        </mxCell>
        <mxCell id="huxlr9JHoWnAr4w4-cFv-32" value="&lt;span style=&quot;font-size: 14px;&quot;&gt;Fully&lt;br&gt;Connected&lt;br&gt;ReLU&lt;br&gt;&lt;/span&gt;" style="text;html=1;strokeColor=none;fillColor=none;align=center;verticalAlign=middle;whiteSpace=wrap;rounded=0;" vertex="1" parent="1">
          <mxGeometry x="221" y="280" width="71" height="30" as="geometry" />
        </mxCell>
        <mxCell id="huxlr9JHoWnAr4w4-cFv-33" value="&lt;span style=&quot;font-size: 14px;&quot;&gt;Matrix&lt;br&gt;multiplier&lt;br&gt;&lt;/span&gt;" style="text;html=1;strokeColor=none;fillColor=none;align=center;verticalAlign=middle;whiteSpace=wrap;rounded=0;" vertex="1" parent="1">
          <mxGeometry x="139" y="280" width="71" height="30" as="geometry" />
        </mxCell>
        <mxCell id="huxlr9JHoWnAr4w4-cFv-34" value="" style="shape=image;imageAspect=0;aspect=fixed;verticalLabelPosition=bottom;verticalAlign=top;image=data:image/jpeg,/9j/4AAQSkZJRgABAQEAYABgAAD/2wBDAAgGBgcGBQgHBwcJCQgKDBQNDAsLDBkSEw8UHRofHh0aHBwgJC4nICIsIxwcKDcpLDAxNDQ0Hyc5PTgyPC4zNDL/2wBDAQkJCQwLDBgNDRgyIRwhMjIyMjIyMjIyMjIyMjIyMjIyMjIyMjIyMjIyMjIyMjIyMjIyMjIyMjIyMjIyMjIyMjL/wgARCAF1AO0DASIAAhEBAxEB/8QAGgABAAIDAQAAAAAAAAAAAAAAAAQFAgMGAf/EABoBAQADAQEBAAAAAAAAAAAAAAABBAUCAwb/2gAMAwEAAhADEAAAAYQ0PngAGOWNC9P6Dn+hyr8znOj5yZqB9FhhPIAAROFhX2ODt382FN8Oudp7en1qPo0M8AABhnhRvWPQc/f5N+bzvRc7M04+iwwnkAAInCxr7HA276bCmePXO09zTa1H0aGeAAAwzwo3rG/oL/Jvzed6LnZmnH0WGE8gABE42NdY4G1fzIcvx756muKfWo+jQzwAAGGeFG9Y9Bz/AEGTfmc70XOzNOPosMJ5AACJxsa6xwNq/lxJfj3ztPcU+tQ9GhQAAAYZ4UL1j0HP9BlX5nO9FzkzUD6LDCeQAAicbCvsMDa6CZCm+PfOVFvT61D0aFAAABhnhQvWPQc90OVfmc50fOTNP7579FhhPIAA8jrywq5OFtdVN5ff5d408iPqUPRfzwAGWI9154UL1jf0F/lX5vOdHzkzT++e/RYYTyAAwzw59M5UaZg7FhYwrLz694ruOH0Kvo1MsAzwAGGeFC/YdBz/AEGVemc70fOTNQ89+iwwnkAAE4++ue/PQ89J5Z4J5AAA81Z5Z+jts4FlnXc6zoNqeP8Acct/DDrhngAAPfMsQA9kJjBAADLEeZeYVbdha857Vsdrt4byJPPdPODrgAAAAD3PWSCAAAAAAAAAAAAAAAAAAAAAAAAAAAAAAAAAD2T5+8Vu09+QTyAAAA89857l+9dhkanI6r6qmIPvuFytmLlIAAI6vM6Rj/SWFXp3X80LWWAAAAxyc99BjAvMDcpoPQUqIRlo0vRoZwAAB5v49NLf5z1pZa5ZPPe/IJgAAIm16PnOk+d3YvP3/PxFdnhnq0Qv0B6eAA87vhOmzNOxqsoOdbjw9uj05w2a9m9jh15gDIxbdczadJzfSfObsXnuh5/mK3LHLVo+i/QkbsluvrjTceeoLZs8PWPNjWOfoWOi6i5GhzMKzrvbjZnJy+m+fiSM3fGOremI0j0McvJb+j5zo/kfpYvP39Byrd+mx2c6H5O80s71jl7eZp1cdS2vDnrZJgT8fV6SHLh5N6hrrCv9+LHzT79Dib2ndarmvRzMtoyidnmrHw9p/R850fze7EoL+g5V0+vl6tHf7o3bGVG82aKNr3ZqkRPmPuPn3lOhzKV3o4kuLQs89XWVb7cyc8N2pnx8j28cWO3rj1lq8PbdHmROe7Hpea6TJ0olB0HPxFbNhWNzxjbde+7RiDHqvPXMhw8tKu09b/SRZUbi/wA9W2Nd687MsffPFyYphng82zWHuPvibXo+c6P024vP9Bz5XbdOzqjl4eNA2OvbW2ew1Ng1WtfN9LvTxNOhdq66yid8Ye7Hjla2xHOtt8NbYNfm1M2HR8xbemxv561qkV+eeU1Nbb540uk1YxPLR22MSOeT4e5OUfVMhKq8vSbqxho3WUSPLGwhbYZx9M1Mqry9JurCIbrGJoRjPh7TOPpmplVnvheDStgPPR56HnoAAAgAEgAAAAgEgAAAAAAAAAAAAAf/xAApEAABAwMEAgICAwEBAAAAAAACAAEDBBEyEzAxMxIhEEEFIBQiQGBw/9oACAEBAAEFAv3HiJQo+Kvr2hxi5hR41fXtDjEoUfFX17QcRKFHjV9bcbI4xKFFxV9e0GMShR41fW3GyOMShRcVfX9bIcRKFHjV9bcbIYxKFFjV9e0GMShR41fX9bIYxKFFjV9e0GMShR8VfX9bIYxKFHxV9e0GMShR8VfX9bIYxKFHjV9f1shjEoUeNX1/WyGMShR8VfX9bIYxKJFjV9f1shjEoUeNX1/WyGMSiRY1fX9bI4xKFHjV9f1shjEokWNX1/WyOMShR8VfW3Gw/AlZhn8UFf4p/wAndTVOoLe2/dvbu1kOMShR41fW3GwWLIGZRgKGKNFDH4ttBjEokeNX1txsFiyBlGgIURj4ttBjEoUfFX1/Wz4srMrKyt8+Xzf+v6DjEoUfFX1/X+d+BJrBMIoK8BT/AJKN1NUjIDcfoz2b/EWLIRZBEDoaeJFTQ+LbV3t8s13khKLYZ7OftmZALqNnQIn/AK75GRbXiysva9r2uP8AyBqaodv4tQtCdk4SMv7Mme7bFnd/4015IziPdj6zUiNOgx2IoJ4gGRgkq54pW3H4H8lCwl+RhdFVxuimF15Chx2GkNlIQk1n3qaICAaSB2kpoWUgCyLhuP8ARSdYcSqVHj9bLQzOtCdaUrLxNl7TPdtmk6w4mUqPH62Y8DRujf4DHZpOsOJVKjx+th0P5CBhKugdFUxuikF1dkGP7M114OnZUnWHEylR4tx8MCsycGdO1v0p4AMBoYHaSjhFHEIomawj68HTBdMLLxZPGmD5fikwDiZSosWB7Wsrfo7XbxWmnF2VJgHEqlRcNxsfVJgHEylRYtwrfu5NakwDiVSouG48m/e7K92pMA4mUqLG/q9/hiv8Edl5umJPcncbBSYBxKpUXHsl4/1EvgisvN0xon9eD3v4qkwDiVSo8WB7YndMD2YnT86br2xM7XJxtSYBxKpUWIuyuPiLO6e4uXLD5M4uLHz5Cn9vSYBxKpUeNxsVnPSJM42+LjbyZiFE/wDWk6w4lUqLGLJ8QR5P7Q8Faxez9osqTAOJlIjx9+J9nkGxSYBxKpUWLK7pnsnfydMTsnN3+Lv8UmAcTKVFizp/b7FJgHEqlR8Nxs0nWHEylR47VJgHEylRYtxs0nWHEylRYtx8aUy0plpTLSmWlMtKZaUyg1IxGpJmOYiRjISeGZ20plpTLSmWlMtKZaUy0plpTLSmWjMoNSMRqSZpJiJGMpIoZnbSmWlMtKZRi4tLNZRsZu5eAlIZlELi0syjYzdy8BeQzKIXFpZrKNjN3LwEpDMohcWlmso2M3cvASkMyjFxaWayjYzdy8BKQzKIXFSzWUbGbuXgJSkTkUztpyXYpGYxmNwGQERSu2nImKRmNpjcBkBOUztpy3YpGY2mNwGQERTO2nImKRmNpjcBkBEUztpyJilZjaY3AZARFM7aciYpBY2mNxA2/wCb/8QAJxEAAgECBQUBAAMBAAAAAAAAAAECAxEEEBIgMRMUIUFRMgUiQFD/2gAIAQMBAT8BzwfsQyXOxciyxnC24P2IZLnYuRZYzhbcH7EMlzsXIssZ624P2IZLnYuRZYz1twfsQyXOxciyxvrbg/YhkudkeRLLGLwtuD9iGS52U/2s8Z+NuD9iGPnb1J/TqT+jnJ87cIlpbFlUVpNb7baFaMFZnd0zvKZN6pN/8qGHqTV0iUXF2e6CvKx2tP4dtT+GIpQjG62R58lCdOUOT+Q6PjQ77oO0s8W/6rbCnOX5O3qfDt6nwat42LkQzGcLbg/xnV/b2RfkQzGcLJybIzLowT5ybJ1HqHNsUmOVyPIuBmOlZI6hYUGRpSbsYOnovkxUHLyNWFBs6bHQcfLI8DMXSc7WJw0uxUjGysUVF/o8alYocvOCeljguncpRTdmVEl4Kl/F8mVb2IQi29WzBe8mNu5qdrCbXA5N+WJtsXAzFNq1hu521X4dtV+Hb1PhhKUo3uWNLJYepfg7ep8O3qfDtqnwWHqX4EmNMxNKckrHb1Pgqc/ZomxwmaJihMUJ+zRNjhM0TFCaFCZomxwmaJoUJ/7/AP/EACoRAAIBAwQCAgEDBQAAAAAAAAABAgMEMhESIDETIRBRIgUUQhUwQEFQ/9oACAECAQE/Afm+xQylkhdcamT+LDF8b7FDKeSF1xqZP4sMXxvsUMp5IXXGpk/iwxfG+xQynkhdcamT+LDF8b7FDKeSF1xqZP4sMXxvsUMpZIXXGcXqzYyx9JrjfYoZTyQuEuh6nssNdXrxvsUMp5IXHbH6NsfoSS43r6R+JGUUyPtf3Lig6vR+wl9n9Pl9kVotP+VKrCL0bE9euUnoh31QV7ULavKo/fGrTkqmpb7/AOXJ9E9qYtpZJe3xlOMezzU/s80PvlVyYixxfG/TbQosSZDFcHFoq5MRY9P4UUiUEKLL/wBRRuZTf5IjSWhGCQ4JkYpEuitmxH6dHVM8QnqOokSrRitS/q+SPxTyRK5UPRGWo6iR5YkblTeiK2bEWNZU4vUp1FJalKctXuK03/A1/F6lxh8Q7RUknMVR+TaVanpuJTn/ALkUpRWpUyEUdNvsnUlCK2lS5qVO2QrThixzk3q2KcpL38RFVlB+iVxOQpyQ5tikyXYiUnFaolUlLtnikeKR45EYPQ8bFFjpy1PHI8cjxyFTkSg9RQZODaPFI2zNszbM2zNszbM2yNsjbM2zNszZI2zNszbP/P8A/8QALRAAAgAGAgAEBgEFAAAAAAAAAAECETAxMjMgIQMQQEESImFxgZGhEyNRYHD/2gAIAQEABj8CpxV3XiruvFXiruu67ruu67ruu68VeKvFXirxV4q8VeKvFUsYGsa+GvFVsYofyKvFVujJD+ZV4vRLzlRi9ZZmLGlya9LYxMEP+2qcvbip+9F8X6Dt07syf7Mov2ZRfv8A5D14Rq/k1/yYGNKSUxKSm/qfDGpOtD9q2pff4iHx/azInDE23bq1ZLs9/O9L5vEjl9ySi/B71lNGB1AdL1a4OnqiNURqiMGYumq6+1dV12y5cuXpqh3z7RiWLc+vSL1y9axcUl/gb+hLmxcnyimzsYuDFM/A/pw/Jefl0Lj+Byt5fjz97D8n0hcUY+w/t5s97+WKGLjirIY70FzZN81wdNV1XVdcHw1RGmI1RGqI1RGqI0xEn4MZojNMZqiNURqiNMRpiNURpiNURpiNURqiNURJ+DEaYzTGaojVEaojVEaoibbmShZk5Fy7JtskmZORcuztskmXci5dnbcyULMnIuXZNtkoWXci5dk22STMnIuXMJGJJeEYmswMSS8MxNZgYkv6ZiazqCRiSXhmJrMDEkvDMTXM6gkYnXhncJ3B/rf/xAAqEAACAgEDBAICAgIDAAAAAAAAARExIRAwQSBRYXGR8YGhscFA0WBw8P/aAAgBAQABPyHqdFZZdBCrZdFXTAqlsuiosUWqlS2XRSX6AaNl0yrRRa6VL1sumVFugKjZdMq6bap62XRSX6AaNl0yguuhFUvWy6KC/QKqbLplBw6EVS9bLplBboJVNl0yg4FFqlUvWy6ZQW6CVTZdMoOBw1Eqetl0UFugJU2XTKDgcNVKnrZdFBcrrBU2XTKDicNRKmy6KC/RgqbLplRZHDUSp62XRQX6MFTZdMqLIotXUetloZiIYYrlZ3dkSJGTKkeF7CQKYMxFRZFNRUetm4ojsBm1Hr+IR7B2ME/b2XWhZFdRUetmwSUsof3XyJH+wQv5Dxw7lH7ey6KCy6DlT1stSsnh0oefk/L5IefkSSrRs0mMauaRWOh0VFl0HKnr/IaGEIsa8i/LhbAqwcseV6cKJz0w4neuEULA7aF8g/ZJs4TFNeXtNyzw46GQK2KmWmwxTVjSHY5pQdoYWNCrlQohx3c78DM4ULZalQz2fJh/tJCkzICSSF/0+3CkQmyH5IeXwHc/QWH7D5P3MhsqSTdkOPvpSDV/Gd11+dAqzkczkU7OO5sspkYqBjxYKDJZW48SHMWK0D3cZYY3CrZwjPgU9rFD/wBGJQo3HTHYtmcKLcCJWFCKeCj/ACHT1nVl9EqbLcISSmLQneB2jbSwRMtl09Z0ZyLRU2XS9n6YYdnI7uM/l2XT1nUsy0VNnBSKZzJdigf4Ks1wfabA2mm9JzrOhZlhRrzjxaA99YlMRnMzOgkwaoLPCGNIR4xwQ4GxVoHTkSSrRU2KNdyLiAG4TPphO2S7ixn72nU5F4sLsuxR713MuK9ILjrksn7WhVnIvKTyF9TVbIMgo967mXCRLL4ElHorTQRksl4eCRSdKRs2H515VlmWiyAJ0xDsJxo/LGxmLMsauxnOacMyK9V8yzLCGbapMmK18CRqRmSdqSYlJeKGcVJCCFx8kh4DEU1qyrOWmm8UDxszh+TCuEmHbzpPY1wZI1AZSXIeF2jJ7jDS+ZZlgo+HQb8BCa2sYINOZl8iw5G5YuUDhKlNQpHhvCrkxvAtT1ZZlx2E45JTw8yETn0IVmuRhHPPFHCXtHkcL8HLuI5GD9zToy7LBYAOYozQkvL5dbpj6fVlmXDtJQcE+B6w5UD+Q0UtLkUw4udPMx867oyz0jYWWNI9h09fVZZlpRsunrOjLMsFS2XWu2wy5cUbLp6nqyz0lGv1Z9afVn1Z9WfXn1pDMI8H9ASr+MqvjHFfpEpf1n1p9afVn1p9WfWn0el4f6yHwPggX6xFj4yg+MaEvjFF/UfVn1ZPGbyPyk8syT8ovmx5MKR4TJYz9jVzu5/IAZ9tjyYx4FJJHm/I/LT3P5FBOZoRhPgSZJHm8j8pPLM4/KE5mx5MJ9CZNGfsflJ7n8yhftgwj0JiKWfsblp7n8wAiRtjyTGaRCF8heczBgvZIHh2HE5P2Q1R/JnlmrH2Sh4dhxOT9kZUPyXGYsx9koePaRxOT9kP9qTPLn+SrH2Sh4dhxOT9kLUfyZ5c/wAlSPslDxHE5PZAvlCnlzIJh9kowexI8v5/43//2gAMAwEAAgADAAAAEPffQ+flPffa6K7Pfff1bKlPffa8rdPfffxdPtPffayx3vfff1QOlvffa61//fffVxLlvffa/wA0/wB999XI68999ub4R999tzWG+9998BTF9919Su2e999sssvt999+8sX9999d98999tl1le999999c9999999999999999999999999999999999w399999+im5999+ui9999964Uk9999/713999rSNq959/3bJ999/sMR+9+IyoKSd+P+9DZzH05xKNJDQ22Kf9fR7ZhXt0AKdNcv5gXBQA05cxjAAyZBJjNLPiezGPHPP+fIHJYwCiHgHK2Ojn7iAAQggAABBIAAAMBAAAAAAAAAAAAAAA/8QAIxEAAgIDAQADAAIDAAAAAAAAAAERMRAgIUFRYXFAoVCBsf/aAAgBAwEBPxDNMVGW6VFELaUx0ZbpUeBbSmOjLdKiiEV1Ux0ZbpVgqK6qY6Mt0qPAimqmOjLdElUhkIQ6TWmOhbp/cFIkU/utMdC7RNpyj7h9w4LTqp8gZDSZ+ibyanV7FI8Z9DFofd5df4OgIhzD2UpsKEIaYc6QSeBR5SF6TNoBiaaHCFpS91TykrPbGlelRVbjd+jIcn97MwIaQVWgMBicMaidRwxSNNiEvRwfkqwdFKUNlY0pEKFj4n7ijGz8dHtDEEnWuCNfIUYISY0KgaMT1KkaekngzkPvwgo9FGgSQ+UL/sfECrBGSP8Ah9nfzMnQ8PQs6TG/rweyw5k6JCbKsFrMMaXoT+GwTGzwbd6PkujEbCiTMY0mUY2upwM8SY0qEmJKnJLlGN6nAzxJjQoSYkmGNOWmN6nBRSZA4mJdaZJJJJOJJ1kkl/wP/8QAJBEBAAIBBAMAAgMBAAAAAAAAAQARMSAhQaEQUWEwcUBQgdH/2gAIAQIBAT8Q1CsGhwzuRzpB5HvTBocM7kc6YeR70waHDOxHOmHme9MGhwzsRz+CD3pi0OGdiOfwQe1MGh2GMqj64VTOse9MDRnhSxJOtB70wNPyT5JhDSe4ReZAqEdLrsxpUFVUfShZcVa4/qsoEAXqIiQam0X6jQ46HDUJAbm00o1G0QNKY/Vm2NOW1PlnxQRLNDidrVBKgJ6cvG06nkFxANydrRRlBHFmYvBC8Rh7YiC8ytvwuSJhYC87XiV6Z5gCyNVGtsQTThhmdyVXPaAbIzU2M7xJ6or/AHePsxAcDRUH+SiKu/8AZsHnXyACVW/MMxyKOccy7ttKGt4licPyOIa29x2nxQ/6VOOVfuBVtS/KJv6MQruGZkRpeDbu/vmO7MzbEILM3iKWcnT4z4z5w7GETsWkJ8J8p8oJuomx4oUPA4AZUQ+0ud7inDNigYGYYZ2XO8fRHAQEhmRlzuR9DK8VKlaqPNH8H//EACoQAAIBAgYCAwACAgMAAAAAAAABESExEDBBUXGhgbEgYZFA8FBwwdHx/9oACAEBAAE/EPld4w1UW5Yj0n93JY4WTc4PcLZpPWdU6yybvGEWFeIVDpLJucFRJCmnD650Fk9I7hesB68J0mT0j2C2aB7DqHQyekP+hchqJHrOqdBk3eBe4sliEnwFp/R0Fk9I7DwFiPUdc6TJucHuFk0Fzg6J1Fk9I7BeLEz1HXOkyekUeUtmgu8FXGdRZPSO0X4B6DrnSZPSPZLZo4Lp0zqLJ6WCvFgvcHQOiybnB7hbLEXOB54DqLJ6WCvFgv8AB0Dqsm5we4WR6BauBfyOosnpYK4WC9wdA5lFk3OD2CwWrC6x1lk9I72EsF7geOA67JSrg7DLBaj1HWOosnpHexgv8HSOm9ZKHloEppV9DuV4QiCFYv5FqeEFJLRkU9ScS7ImTpxSVqdzCNCF7gq4zovWU0XgQ01KPwNavlF9YbCll0FSSol7sm7wWecNaLnB1jpslZCkLG5IUp5QQilXiQMHxFd7WXY/st3hHzu8Hawmg9Z0DrslDEkp6FCPc2E/0+79CG/6Emv6CGLMHNSJYULFsEJm5Sq/hd4O9hkses6B138hDDcKBWZDl6Egco2QjeCI6QLMkUkQyrQvjbKYlqq4+MFBw9c1JtwqiUWWgtsOVI8CpT+UQ8nwJYhpnYVJrKL9ym0kyVs+CEuWQkJVQhqNHtkWgzlD66Zy4QxE0GWocWUoQJF2l5IJFVqXy235kvOTacq5ae0jsslDqiYlWa8BaCvMSbJ8j/2I2qG5czTJ/p+bg29h4SiU4jviL7oLnrxGmmUXpFKjE5P1Q9mBFwzVEt2tiNOVo5bh65trh7F/J6Nw8CTYd5KVolduFyOzajRZa+qdFW5pxDvV1uNiLwkFeG9xlInOYido0yZ3Sm0hK4X4FLajyP3aTkJbJzSahlehcVIS2g5yGR+biko0e4i9WuZqq0Gs1zLJq2+WOT/WHQBSkp9CJQbLKptndI98tcYaEsB1FkzTifpCO+LNJVIv+tC6k8Itk/CzqPoULWT0j3y2MF+B9RZPUexF/csMU1ZMqfoy3Lfo8zVlacsnpHfZb4Fq4xh6q+EPb4vDoTT7FXiKYWv9InvQSMfljbcfqW+XjBGLKEPqQjE0FlPJY4LsChQfQWNPoEhREnGqMhDxaJPYmGjcslDLbjZOvJPJfkb6U1aEIG8holw/Rw26JCeIPkj0FwUpbwPU4SFsIlhKCToUr+37GoLGXms26asi/IT0XwW9RXQZEkxRTAY0SouS84os0HqHl8jvoUilFFhb59QT9HsXoai7AOihpNQ1KFZIvjA3ClkRjMM7L2Np2w1w7S9jxwIa200oJpE05T+VpEVymh2ns9RqLsAj0VBrxGCJtUjfBDXXuboJV1mkugkb1cD5RySdVVOC9YoNgeTGJo68C8JoZdUiJFWwmnZikhVEsTjgigrG6MdEk5IcirIcTTd5EqpDqqF9u2+z0F4ScAyOYiN6MapBNOIsFuVxJUSbfohe1Sd8pF0Jfo2JWF3HQlyOHFRuJuo0iey+K/EUrj1BZiuMacDTw/54JGeKng2OFruM3Ju6RFNEU5+xdSiwpuSkzQc7ilcLqeNRUrQmcSI0Ho2uz0C4FSKq6qT51HAjTOhihOTw6izWJDh+A8exk24iSeTkglXWRxumi5fYuWyXQQ4xNZOx7x6vhpUdBXVtlirQ28JuJ4J+xWNEUPtYlJxoRxGr2DwVHggiREtUsInotb6JKJc5S0PCl8JSY0FUJnJKmxqTQqUpujWiB1xjHrE3mFjwxkpFhM04uilViKJ0E5G8nYZGTBLBqqiMprZyM9M2oWuFzW+x20zdXqJ+zxtQD/kKzOUKai0E13cvI6wvcWeBYwJZnQWT1j2RMUiSPWWTc4Pb9ljjALgtU6CyesLHkPViA/4HSWKaqO4+ARHfTc4CNyaAzPGpCLMcpCncPm0wvCmympyJYhAQykCjR2AW+oJtneBsYjOVcrCaH8FuSXJeuPIl4HSoVVOiksXGRYhZtQTPag7E6QW7kJljJSama9yECTEqzahPvbkdiftKOW5C6QJCmplLKXQY2LCdCJffCOxNGtLuROYhCl1Y9NZNwwIZgs2oT+kEOxJkEu5kxjJSamUlpcJgnAO7UFr3ijsSRrS7kJmhJSXVlFaaJgkpKs7BQ90I7FTpS7kU2yUmpj7BLJMZ12dJUhVgql1F1BCFDdLSsOTppvQM069RTyKy63EpFIKTeiVh4dNJuwcl3eoV4FNa3EpNIhx9NAdnXTegYJh/gKPcJa1COgkFttaVhgfbPQMC09RL9yYQkUgZvpEmODroN2DTMPUN6wrUUFUmiFslZKwqw27iFsQtimxC2IWxC2IWyIWxC2RC2IWxC2IWxCIWxC2IWyI+iPohbELYhbEEEfRH0QtiPoj6I+l/Dkn5z/gv/9k=;" vertex="1" parent="1">
          <mxGeometry x="129" y="97" width="65.44" height="103" as="geometry" />
        </mxCell>
        <mxCell id="huxlr9JHoWnAr4w4-cFv-35" value="" style="shape=image;imageAspect=0;aspect=fixed;verticalLabelPosition=bottom;verticalAlign=top;image=data:image/jpeg,/9j/4AAQSkZJRgABAQEAYABgAAD/2wBDAAgGBgcGBQgHBwcJCQgKDBQNDAsLDBkSEw8UHRofHh0aHBwgJC4nICIsIxwcKDcpLDAxNDQ0Hyc5PTgyPC4zNDL/2wBDAQkJCQwLDBgNDRgyIRwhMjIyMjIyMjIyMjIyMjIyMjIyMjIyMjIyMjIyMjIyMjIyMjIyMjIyMjIyMjIyMjIyMjL/wgARCAF1AO0DASIAAhEBAxEB/8QAGgABAAIDAQAAAAAAAAAAAAAAAAQFAgMGAf/EABoBAQADAQEBAAAAAAAAAAAAAAABBAUCAwb/2gAMAwEAAhADEAAAAYQ0PngAGOWNC9P6Dn+hyr8znOj5yZqB9FhhPIAAROFhX2ODt382FN8Oudp7en1qPo0M8AABhnhRvWPQc/f5N+bzvRc7M04+iwwnkAAInCxr7HA276bCmePXO09zTa1H0aGeAAAwzwo3rG/oL/Jvzed6LnZmnH0WGE8gABE42NdY4G1fzIcvx756muKfWo+jQzwAAGGeFG9Y9Bz/AEGTfmc70XOzNOPosMJ5AACJxsa6xwNq/lxJfj3ztPcU+tQ9GhQAAAYZ4UL1j0HP9BlX5nO9FzkzUD6LDCeQAAicbCvsMDa6CZCm+PfOVFvT61D0aFAAABhnhQvWPQc90OVfmc50fOTNP7579FhhPIAA8jrywq5OFtdVN5ff5d408iPqUPRfzwAGWI9154UL1jf0F/lX5vOdHzkzT++e/RYYTyAAwzw59M5UaZg7FhYwrLz694ruOH0Kvo1MsAzwAGGeFC/YdBz/AEGVemc70fOTNQ89+iwwnkAAE4++ue/PQ89J5Z4J5AAA81Z5Z+jts4FlnXc6zoNqeP8Acct/DDrhngAAPfMsQA9kJjBAADLEeZeYVbdha857Vsdrt4byJPPdPODrgAAAAD3PWSCAAAAAAAAAAAAAAAAAAAAAAAAAAAAAAAAAD2T5+8Vu09+QTyAAAA89857l+9dhkanI6r6qmIPvuFytmLlIAAI6vM6Rj/SWFXp3X80LWWAAAAxyc99BjAvMDcpoPQUqIRlo0vRoZwAAB5v49NLf5z1pZa5ZPPe/IJgAAIm16PnOk+d3YvP3/PxFdnhnq0Qv0B6eAA87vhOmzNOxqsoOdbjw9uj05w2a9m9jh15gDIxbdczadJzfSfObsXnuh5/mK3LHLVo+i/QkbsluvrjTceeoLZs8PWPNjWOfoWOi6i5GhzMKzrvbjZnJy+m+fiSM3fGOremI0j0McvJb+j5zo/kfpYvP39Byrd+mx2c6H5O80s71jl7eZp1cdS2vDnrZJgT8fV6SHLh5N6hrrCv9+LHzT79Dib2ndarmvRzMtoyidnmrHw9p/R850fze7EoL+g5V0+vl6tHf7o3bGVG82aKNr3ZqkRPmPuPn3lOhzKV3o4kuLQs89XWVb7cyc8N2pnx8j28cWO3rj1lq8PbdHmROe7Hpea6TJ0olB0HPxFbNhWNzxjbde+7RiDHqvPXMhw8tKu09b/SRZUbi/wA9W2Nd687MsffPFyYphng82zWHuPvibXo+c6P024vP9Bz5XbdOzqjl4eNA2OvbW2ew1Ng1WtfN9LvTxNOhdq66yid8Ye7Hjla2xHOtt8NbYNfm1M2HR8xbemxv561qkV+eeU1Nbb540uk1YxPLR22MSOeT4e5OUfVMhKq8vSbqxho3WUSPLGwhbYZx9M1Mqry9JurCIbrGJoRjPh7TOPpmplVnvheDStgPPR56HnoAAAgAEgAAAAgEgAAAAAAAAAAAAAf/xAApEAABAwMEAgICAwEBAAAAAAACAAEDBBEyEzAxMxIhEEEFIBQiQGBw/9oACAEBAAEFAv3HiJQo+Kvr2hxi5hR41fXtDjEoUfFX17QcRKFHjV9bcbI4xKFFxV9e0GMShR41fW3GyOMShRcVfX9bIcRKFHjV9bcbIYxKFFjV9e0GMShR41fX9bIYxKFFjV9e0GMShR8VfX9bIYxKFHxV9e0GMShR8VfX9bIYxKFHjV9f1shjEoUeNX1/WyGMShR8VfX9bIYxKJFjV9f1shjEoUeNX1/WyGMSiRY1fX9bI4xKFHjV9f1shjEokWNX1/WyOMShR8VfW3Gw/AlZhn8UFf4p/wAndTVOoLe2/dvbu1kOMShR41fW3GwWLIGZRgKGKNFDH4ttBjEokeNX1txsFiyBlGgIURj4ttBjEoUfFX1/Wz4srMrKyt8+Xzf+v6DjEoUfFX1/X+d+BJrBMIoK8BT/AJKN1NUjIDcfoz2b/EWLIRZBEDoaeJFTQ+LbV3t8s13khKLYZ7OftmZALqNnQIn/AK75GRbXiysva9r2uP8AyBqaodv4tQtCdk4SMv7Mme7bFnd/4015IziPdj6zUiNOgx2IoJ4gGRgkq54pW3H4H8lCwl+RhdFVxuimF15Chx2GkNlIQk1n3qaICAaSB2kpoWUgCyLhuP8ARSdYcSqVHj9bLQzOtCdaUrLxNl7TPdtmk6w4mUqPH62Y8DRujf4DHZpOsOJVKjx+th0P5CBhKugdFUxuikF1dkGP7M114OnZUnWHEylR4tx8MCsycGdO1v0p4AMBoYHaSjhFHEIomawj68HTBdMLLxZPGmD5fikwDiZSosWB7Wsrfo7XbxWmnF2VJgHEqlRcNxsfVJgHEylRYtwrfu5NakwDiVSouG48m/e7K92pMA4mUqLG/q9/hiv8Edl5umJPcncbBSYBxKpUXHsl4/1EvgisvN0xon9eD3v4qkwDiVSo8WB7YndMD2YnT86br2xM7XJxtSYBxKpUWIuyuPiLO6e4uXLD5M4uLHz5Cn9vSYBxKpUeNxsVnPSJM42+LjbyZiFE/wDWk6w4lUqLGLJ8QR5P7Q8Faxez9osqTAOJlIjx9+J9nkGxSYBxKpUWLK7pnsnfydMTsnN3+Lv8UmAcTKVFizp/b7FJgHEqlR8Nxs0nWHEylR47VJgHEylRYtxs0nWHEylRYtx8aUy0plpTLSmWlMtKZaUyg1IxGpJmOYiRjISeGZ20plpTLSmWlMtKZaUy0plpTLSmWjMoNSMRqSZpJiJGMpIoZnbSmWlMtKZRi4tLNZRsZu5eAlIZlELi0syjYzdy8BeQzKIXFpZrKNjN3LwEpDMohcWlmso2M3cvASkMyjFxaWayjYzdy8BKQzKIXFSzWUbGbuXgJSkTkUztpyXYpGYxmNwGQERSu2nImKRmNpjcBkBOUztpy3YpGY2mNwGQERTO2nImKRmNpjcBkBEUztpyJilZjaY3AZARFM7aciYpBY2mNxA2/wCb/8QAJxEAAgECBQUBAAMBAAAAAAAAAAECAxEEEBIgMRMUIUFRMgUiQFD/2gAIAQMBAT8BzwfsQyXOxciyxnC24P2IZLnYuRZYzhbcH7EMlzsXIssZ624P2IZLnYuRZYz1twfsQyXOxciyxvrbg/YhkudkeRLLGLwtuD9iGS52U/2s8Z+NuD9iGPnb1J/TqT+jnJ87cIlpbFlUVpNb7baFaMFZnd0zvKZN6pN/8qGHqTV0iUXF2e6CvKx2tP4dtT+GIpQjG62R58lCdOUOT+Q6PjQ77oO0s8W/6rbCnOX5O3qfDt6nwat42LkQzGcLbg/xnV/b2RfkQzGcLJybIzLowT5ybJ1HqHNsUmOVyPIuBmOlZI6hYUGRpSbsYOnovkxUHLyNWFBs6bHQcfLI8DMXSc7WJw0uxUjGysUVF/o8alYocvOCeljguncpRTdmVEl4Kl/F8mVb2IQi29WzBe8mNu5qdrCbXA5N+WJtsXAzFNq1hu521X4dtV+Hb1PhhKUo3uWNLJYepfg7ep8O3qfDtqnwWHqX4EmNMxNKckrHb1Pgqc/ZomxwmaJihMUJ+zRNjhM0TFCaFCZomxwmaJoUJ/7/AP/EACoRAAIBAwQCAgEDBQAAAAAAAAABAgMEMhESIDETIRBRIgUUQhUwQEFQ/9oACAECAQE/Afm+xQylkhdcamT+LDF8b7FDKeSF1xqZP4sMXxvsUMp5IXXGpk/iwxfG+xQynkhdcamT+LDF8b7FDKeSF1xqZP4sMXxvsUMpZIXXGcXqzYyx9JrjfYoZTyQuEuh6nssNdXrxvsUMp5IXHbH6NsfoSS43r6R+JGUUyPtf3Lig6vR+wl9n9Pl9kVotP+VKrCL0bE9euUnoh31QV7ULavKo/fGrTkqmpb7/AOXJ9E9qYtpZJe3xlOMezzU/s80PvlVyYixxfG/TbQosSZDFcHFoq5MRY9P4UUiUEKLL/wBRRuZTf5IjSWhGCQ4JkYpEuitmxH6dHVM8QnqOokSrRitS/q+SPxTyRK5UPRGWo6iR5YkblTeiK2bEWNZU4vUp1FJalKctXuK03/A1/F6lxh8Q7RUknMVR+TaVanpuJTn/ALkUpRWpUyEUdNvsnUlCK2lS5qVO2QrThixzk3q2KcpL38RFVlB+iVxOQpyQ5tikyXYiUnFaolUlLtnikeKR45EYPQ8bFFjpy1PHI8cjxyFTkSg9RQZODaPFI2zNszbM2zNszbM2yNsjbM2zNszZI2zNszbP/P8A/8QALRAAAgAGAgAEBgEFAAAAAAAAAAECETAxMjMgIQMQQEESImFxgZGhEyNRYHD/2gAIAQEABj8CpxV3XiruvFXiruu67ruu67ruu68VeKvFXirxV4q8VeKvFUsYGsa+GvFVsYofyKvFVujJD+ZV4vRLzlRi9ZZmLGlya9LYxMEP+2qcvbip+9F8X6Dt07syf7Mov2ZRfv8A5D14Rq/k1/yYGNKSUxKSm/qfDGpOtD9q2pff4iHx/azInDE23bq1ZLs9/O9L5vEjl9ySi/B71lNGB1AdL1a4OnqiNURqiMGYumq6+1dV12y5cuXpqh3z7RiWLc+vSL1y9axcUl/gb+hLmxcnyimzsYuDFM/A/pw/Jefl0Lj+Byt5fjz97D8n0hcUY+w/t5s97+WKGLjirIY70FzZN81wdNV1XVdcHw1RGmI1RGqI1RGqI0xEn4MZojNMZqiNURqiNMRpiNURpiNURpiNURqiNURJ+DEaYzTGaojVEaojVEaoibbmShZk5Fy7JtskmZORcuztskmXci5dnbcyULMnIuXZNtkoWXci5dk22STMnIuXMJGJJeEYmswMSS8MxNZgYkv6ZiazqCRiSXhmJrMDEkvDMTXM6gkYnXhncJ3B/rf/xAAqEAACAgEDBAICAgIDAAAAAAAAARExIRAwQSBRYXGR8YGhscFA0WBw8P/aAAgBAQABPyHqdFZZdBCrZdFXTAqlsuiosUWqlS2XRSX6AaNl0yrRRa6VL1sumVFugKjZdMq6bap62XRSX6AaNl0yguuhFUvWy6KC/QKqbLplBw6EVS9bLplBboJVNl0yg4FFqlUvWy6ZQW6CVTZdMoOBw1Eqetl0UFugJU2XTKDgcNVKnrZdFBcrrBU2XTKDicNRKmy6KC/RgqbLplRZHDUSp62XRQX6MFTZdMqLIotXUetloZiIYYrlZ3dkSJGTKkeF7CQKYMxFRZFNRUetm4ojsBm1Hr+IR7B2ME/b2XWhZFdRUetmwSUsof3XyJH+wQv5Dxw7lH7ey6KCy6DlT1stSsnh0oefk/L5IefkSSrRs0mMauaRWOh0VFl0HKnr/IaGEIsa8i/LhbAqwcseV6cKJz0w4neuEULA7aF8g/ZJs4TFNeXtNyzw46GQK2KmWmwxTVjSHY5pQdoYWNCrlQohx3c78DM4ULZalQz2fJh/tJCkzICSSF/0+3CkQmyH5IeXwHc/QWH7D5P3MhsqSTdkOPvpSDV/Gd11+dAqzkczkU7OO5sspkYqBjxYKDJZW48SHMWK0D3cZYY3CrZwjPgU9rFD/wBGJQo3HTHYtmcKLcCJWFCKeCj/ACHT1nVl9EqbLcISSmLQneB2jbSwRMtl09Z0ZyLRU2XS9n6YYdnI7uM/l2XT1nUsy0VNnBSKZzJdigf4Ks1wfabA2mm9JzrOhZlhRrzjxaA99YlMRnMzOgkwaoLPCGNIR4xwQ4GxVoHTkSSrRU2KNdyLiAG4TPphO2S7ixn72nU5F4sLsuxR713MuK9ILjrksn7WhVnIvKTyF9TVbIMgo967mXCRLL4ElHorTQRksl4eCRSdKRs2H515VlmWiyAJ0xDsJxo/LGxmLMsauxnOacMyK9V8yzLCGbapMmK18CRqRmSdqSYlJeKGcVJCCFx8kh4DEU1qyrOWmm8UDxszh+TCuEmHbzpPY1wZI1AZSXIeF2jJ7jDS+ZZlgo+HQb8BCa2sYINOZl8iw5G5YuUDhKlNQpHhvCrkxvAtT1ZZlx2E45JTw8yETn0IVmuRhHPPFHCXtHkcL8HLuI5GD9zToy7LBYAOYozQkvL5dbpj6fVlmXDtJQcE+B6w5UD+Q0UtLkUw4udPMx867oyz0jYWWNI9h09fVZZlpRsunrOjLMsFS2XWu2wy5cUbLp6nqyz0lGv1Z9afVn1Z9WfXn1pDMI8H9ASr+MqvjHFfpEpf1n1p9afVn1p9WfWn0el4f6yHwPggX6xFj4yg+MaEvjFF/UfVn1ZPGbyPyk8syT8ovmx5MKR4TJYz9jVzu5/IAZ9tjyYx4FJJHm/I/LT3P5FBOZoRhPgSZJHm8j8pPLM4/KE5mx5MJ9CZNGfsflJ7n8yhftgwj0JiKWfsblp7n8wAiRtjyTGaRCF8heczBgvZIHh2HE5P2Q1R/JnlmrH2Sh4dhxOT9kZUPyXGYsx9koePaRxOT9kP9qTPLn+SrH2Sh4dhxOT9kLUfyZ5c/wAlSPslDxHE5PZAvlCnlzIJh9kowexI8v5/43//2gAMAwEAAgADAAAAEPffQ+flPffa6K7Pfff1bKlPffa8rdPfffxdPtPffayx3vfff1QOlvffa61//fffVxLlvffa/wA0/wB999XI68999ub4R999tzWG+9998BTF9919Su2e999sssvt999+8sX9999d98999tl1le999999c9999999999999999999999999999999999w399999+im5999+ui9999964Uk9999/713999rSNq959/3bJ999/sMR+9+IyoKSd+P+9DZzH05xKNJDQ22Kf9fR7ZhXt0AKdNcv5gXBQA05cxjAAyZBJjNLPiezGPHPP+fIHJYwCiHgHK2Ojn7iAAQggAABBIAAAMBAAAAAAAAAAAAAAA/8QAIxEAAgIDAQADAAIDAAAAAAAAAAERMRAgIUFRYXFAoVCBsf/aAAgBAwEBPxDNMVGW6VFELaUx0ZbpUeBbSmOjLdKiiEV1Ux0ZbpVgqK6qY6Mt0qPAimqmOjLdElUhkIQ6TWmOhbp/cFIkU/utMdC7RNpyj7h9w4LTqp8gZDSZ+ibyanV7FI8Z9DFofd5df4OgIhzD2UpsKEIaYc6QSeBR5SF6TNoBiaaHCFpS91TykrPbGlelRVbjd+jIcn97MwIaQVWgMBicMaidRwxSNNiEvRwfkqwdFKUNlY0pEKFj4n7ijGz8dHtDEEnWuCNfIUYISY0KgaMT1KkaekngzkPvwgo9FGgSQ+UL/sfECrBGSP8Ah9nfzMnQ8PQs6TG/rweyw5k6JCbKsFrMMaXoT+GwTGzwbd6PkujEbCiTMY0mUY2upwM8SY0qEmJKnJLlGN6nAzxJjQoSYkmGNOWmN6nBRSZA4mJdaZJJJJOJJ1kkl/wP/8QAJBEBAAIBBAMAAgMBAAAAAAAAAQARMSAhQaEQUWEwcUBQgdH/2gAIAQIBAT8Q1CsGhwzuRzpB5HvTBocM7kc6YeR70waHDOxHOmHme9MGhwzsRz+CD3pi0OGdiOfwQe1MGh2GMqj64VTOse9MDRnhSxJOtB70wNPyT5JhDSe4ReZAqEdLrsxpUFVUfShZcVa4/qsoEAXqIiQam0X6jQ46HDUJAbm00o1G0QNKY/Vm2NOW1PlnxQRLNDidrVBKgJ6cvG06nkFxANydrRRlBHFmYvBC8Rh7YiC8ytvwuSJhYC87XiV6Z5gCyNVGtsQTThhmdyVXPaAbIzU2M7xJ6or/AHePsxAcDRUH+SiKu/8AZsHnXyACVW/MMxyKOccy7ttKGt4licPyOIa29x2nxQ/6VOOVfuBVtS/KJv6MQruGZkRpeDbu/vmO7MzbEILM3iKWcnT4z4z5w7GETsWkJ8J8p8oJuomx4oUPA4AZUQ+0ud7inDNigYGYYZ2XO8fRHAQEhmRlzuR9DK8VKlaqPNH8H//EACoQAAIBAgYCAwACAgMAAAAAAAABESExEDBBUXGhgbEgYZFA8FBwwdHx/9oACAEBAAE/EPld4w1UW5Yj0n93JY4WTc4PcLZpPWdU6yybvGEWFeIVDpLJucFRJCmnD650Fk9I7hesB68J0mT0j2C2aB7DqHQyekP+hchqJHrOqdBk3eBe4sliEnwFp/R0Fk9I7DwFiPUdc6TJucHuFk0Fzg6J1Fk9I7BeLEz1HXOkyekUeUtmgu8FXGdRZPSO0X4B6DrnSZPSPZLZo4Lp0zqLJ6WCvFgvcHQOiybnB7hbLEXOB54DqLJ6WCvFgv8AB0Dqsm5we4WR6BauBfyOosnpYK4WC9wdA5lFk3OD2CwWrC6x1lk9I72EsF7geOA67JSrg7DLBaj1HWOosnpHexgv8HSOm9ZKHloEppV9DuV4QiCFYv5FqeEFJLRkU9ScS7ImTpxSVqdzCNCF7gq4zovWU0XgQ01KPwNavlF9YbCll0FSSol7sm7wWecNaLnB1jpslZCkLG5IUp5QQilXiQMHxFd7WXY/st3hHzu8Hawmg9Z0DrslDEkp6FCPc2E/0+79CG/6Emv6CGLMHNSJYULFsEJm5Sq/hd4O9hkses6B138hDDcKBWZDl6Egco2QjeCI6QLMkUkQyrQvjbKYlqq4+MFBw9c1JtwqiUWWgtsOVI8CpT+UQ8nwJYhpnYVJrKL9ym0kyVs+CEuWQkJVQhqNHtkWgzlD66Zy4QxE0GWocWUoQJF2l5IJFVqXy235kvOTacq5ae0jsslDqiYlWa8BaCvMSbJ8j/2I2qG5czTJ/p+bg29h4SiU4jviL7oLnrxGmmUXpFKjE5P1Q9mBFwzVEt2tiNOVo5bh65trh7F/J6Nw8CTYd5KVolduFyOzajRZa+qdFW5pxDvV1uNiLwkFeG9xlInOYido0yZ3Sm0hK4X4FLajyP3aTkJbJzSahlehcVIS2g5yGR+biko0e4i9WuZqq0Gs1zLJq2+WOT/WHQBSkp9CJQbLKptndI98tcYaEsB1FkzTifpCO+LNJVIv+tC6k8Itk/CzqPoULWT0j3y2MF+B9RZPUexF/csMU1ZMqfoy3Lfo8zVlacsnpHfZb4Fq4xh6q+EPb4vDoTT7FXiKYWv9InvQSMfljbcfqW+XjBGLKEPqQjE0FlPJY4LsChQfQWNPoEhREnGqMhDxaJPYmGjcslDLbjZOvJPJfkb6U1aEIG8holw/Rw26JCeIPkj0FwUpbwPU4SFsIlhKCToUr+37GoLGXms26asi/IT0XwW9RXQZEkxRTAY0SouS84os0HqHl8jvoUilFFhb59QT9HsXoai7AOihpNQ1KFZIvjA3ClkRjMM7L2Np2w1w7S9jxwIa200oJpE05T+VpEVymh2ns9RqLsAj0VBrxGCJtUjfBDXXuboJV1mkugkb1cD5RySdVVOC9YoNgeTGJo68C8JoZdUiJFWwmnZikhVEsTjgigrG6MdEk5IcirIcTTd5EqpDqqF9u2+z0F4ScAyOYiN6MapBNOIsFuVxJUSbfohe1Sd8pF0Jfo2JWF3HQlyOHFRuJuo0iey+K/EUrj1BZiuMacDTw/54JGeKng2OFruM3Ju6RFNEU5+xdSiwpuSkzQc7ilcLqeNRUrQmcSI0Ho2uz0C4FSKq6qT51HAjTOhihOTw6izWJDh+A8exk24iSeTkglXWRxumi5fYuWyXQQ4xNZOx7x6vhpUdBXVtlirQ28JuJ4J+xWNEUPtYlJxoRxGr2DwVHggiREtUsInotb6JKJc5S0PCl8JSY0FUJnJKmxqTQqUpujWiB1xjHrE3mFjwxkpFhM04uilViKJ0E5G8nYZGTBLBqqiMprZyM9M2oWuFzW+x20zdXqJ+zxtQD/kKzOUKai0E13cvI6wvcWeBYwJZnQWT1j2RMUiSPWWTc4Pb9ljjALgtU6CyesLHkPViA/4HSWKaqO4+ARHfTc4CNyaAzPGpCLMcpCncPm0wvCmympyJYhAQykCjR2AW+oJtneBsYjOVcrCaH8FuSXJeuPIl4HSoVVOiksXGRYhZtQTPag7E6QW7kJljJSama9yECTEqzahPvbkdiftKOW5C6QJCmplLKXQY2LCdCJffCOxNGtLuROYhCl1Y9NZNwwIZgs2oT+kEOxJkEu5kxjJSamUlpcJgnAO7UFr3ijsSRrS7kJmhJSXVlFaaJgkpKs7BQ90I7FTpS7kU2yUmpj7BLJMZ12dJUhVgql1F1BCFDdLSsOTppvQM069RTyKy63EpFIKTeiVh4dNJuwcl3eoV4FNa3EpNIhx9NAdnXTegYJh/gKPcJa1COgkFttaVhgfbPQMC09RL9yYQkUgZvpEmODroN2DTMPUN6wrUUFUmiFslZKwqw27iFsQtimxC2IWxC2IWyIWxC2RC2IWxC2IWxCIWxC2IWyI+iPohbELYhbEEEfRH0QtiPoj6I+l/Dkn5z/gv/9k=;" vertex="1" parent="1">
          <mxGeometry x="114.56" y="107" width="65.44" height="103" as="geometry" />
        </mxCell>
        <mxCell id="huxlr9JHoWnAr4w4-cFv-36" value="" style="shape=image;imageAspect=0;aspect=fixed;verticalLabelPosition=bottom;verticalAlign=top;image=data:image/jpeg,/9j/4AAQSkZJRgABAQEAYABgAAD/2wBDAAgGBgcGBQgHBwcJCQgKDBQNDAsLDBkSEw8UHRofHh0aHBwgJC4nICIsIxwcKDcpLDAxNDQ0Hyc5PTgyPC4zNDL/2wBDAQkJCQwLDBgNDRgyIRwhMjIyMjIyMjIyMjIyMjIyMjIyMjIyMjIyMjIyMjIyMjIyMjIyMjIyMjIyMjIyMjIyMjL/wgARCAF1AO0DASIAAhEBAxEB/8QAGgABAAIDAQAAAAAAAAAAAAAAAAQFAgMGAf/EABoBAQADAQEBAAAAAAAAAAAAAAABBAUCAwb/2gAMAwEAAhADEAAAAYQ0PngAGOWNC9P6Dn+hyr8znOj5yZqB9FhhPIAAROFhX2ODt382FN8Oudp7en1qPo0M8AABhnhRvWPQc/f5N+bzvRc7M04+iwwnkAAInCxr7HA276bCmePXO09zTa1H0aGeAAAwzwo3rG/oL/Jvzed6LnZmnH0WGE8gABE42NdY4G1fzIcvx756muKfWo+jQzwAAGGeFG9Y9Bz/AEGTfmc70XOzNOPosMJ5AACJxsa6xwNq/lxJfj3ztPcU+tQ9GhQAAAYZ4UL1j0HP9BlX5nO9FzkzUD6LDCeQAAicbCvsMDa6CZCm+PfOVFvT61D0aFAAABhnhQvWPQc90OVfmc50fOTNP7579FhhPIAA8jrywq5OFtdVN5ff5d408iPqUPRfzwAGWI9154UL1jf0F/lX5vOdHzkzT++e/RYYTyAAwzw59M5UaZg7FhYwrLz694ruOH0Kvo1MsAzwAGGeFC/YdBz/AEGVemc70fOTNQ89+iwwnkAAE4++ue/PQ89J5Z4J5AAA81Z5Z+jts4FlnXc6zoNqeP8Acct/DDrhngAAPfMsQA9kJjBAADLEeZeYVbdha857Vsdrt4byJPPdPODrgAAAAD3PWSCAAAAAAAAAAAAAAAAAAAAAAAAAAAAAAAAAD2T5+8Vu09+QTyAAAA89857l+9dhkanI6r6qmIPvuFytmLlIAAI6vM6Rj/SWFXp3X80LWWAAAAxyc99BjAvMDcpoPQUqIRlo0vRoZwAAB5v49NLf5z1pZa5ZPPe/IJgAAIm16PnOk+d3YvP3/PxFdnhnq0Qv0B6eAA87vhOmzNOxqsoOdbjw9uj05w2a9m9jh15gDIxbdczadJzfSfObsXnuh5/mK3LHLVo+i/QkbsluvrjTceeoLZs8PWPNjWOfoWOi6i5GhzMKzrvbjZnJy+m+fiSM3fGOremI0j0McvJb+j5zo/kfpYvP39Byrd+mx2c6H5O80s71jl7eZp1cdS2vDnrZJgT8fV6SHLh5N6hrrCv9+LHzT79Dib2ndarmvRzMtoyidnmrHw9p/R850fze7EoL+g5V0+vl6tHf7o3bGVG82aKNr3ZqkRPmPuPn3lOhzKV3o4kuLQs89XWVb7cyc8N2pnx8j28cWO3rj1lq8PbdHmROe7Hpea6TJ0olB0HPxFbNhWNzxjbde+7RiDHqvPXMhw8tKu09b/SRZUbi/wA9W2Nd687MsffPFyYphng82zWHuPvibXo+c6P024vP9Bz5XbdOzqjl4eNA2OvbW2ew1Ng1WtfN9LvTxNOhdq66yid8Ye7Hjla2xHOtt8NbYNfm1M2HR8xbemxv561qkV+eeU1Nbb540uk1YxPLR22MSOeT4e5OUfVMhKq8vSbqxho3WUSPLGwhbYZx9M1Mqry9JurCIbrGJoRjPh7TOPpmplVnvheDStgPPR56HnoAAAgAEgAAAAgEgAAAAAAAAAAAAAf/xAApEAABAwMEAgICAwEBAAAAAAACAAEDBBEyEzAxMxIhEEEFIBQiQGBw/9oACAEBAAEFAv3HiJQo+Kvr2hxi5hR41fXtDjEoUfFX17QcRKFHjV9bcbI4xKFFxV9e0GMShR41fW3GyOMShRcVfX9bIcRKFHjV9bcbIYxKFFjV9e0GMShR41fX9bIYxKFFjV9e0GMShR8VfX9bIYxKFHxV9e0GMShR8VfX9bIYxKFHjV9f1shjEoUeNX1/WyGMShR8VfX9bIYxKJFjV9f1shjEoUeNX1/WyGMSiRY1fX9bI4xKFHjV9f1shjEokWNX1/WyOMShR8VfW3Gw/AlZhn8UFf4p/wAndTVOoLe2/dvbu1kOMShR41fW3GwWLIGZRgKGKNFDH4ttBjEokeNX1txsFiyBlGgIURj4ttBjEoUfFX1/Wz4srMrKyt8+Xzf+v6DjEoUfFX1/X+d+BJrBMIoK8BT/AJKN1NUjIDcfoz2b/EWLIRZBEDoaeJFTQ+LbV3t8s13khKLYZ7OftmZALqNnQIn/AK75GRbXiysva9r2uP8AyBqaodv4tQtCdk4SMv7Mme7bFnd/4015IziPdj6zUiNOgx2IoJ4gGRgkq54pW3H4H8lCwl+RhdFVxuimF15Chx2GkNlIQk1n3qaICAaSB2kpoWUgCyLhuP8ARSdYcSqVHj9bLQzOtCdaUrLxNl7TPdtmk6w4mUqPH62Y8DRujf4DHZpOsOJVKjx+th0P5CBhKugdFUxuikF1dkGP7M114OnZUnWHEylR4tx8MCsycGdO1v0p4AMBoYHaSjhFHEIomawj68HTBdMLLxZPGmD5fikwDiZSosWB7Wsrfo7XbxWmnF2VJgHEqlRcNxsfVJgHEylRYtwrfu5NakwDiVSouG48m/e7K92pMA4mUqLG/q9/hiv8Edl5umJPcncbBSYBxKpUXHsl4/1EvgisvN0xon9eD3v4qkwDiVSo8WB7YndMD2YnT86br2xM7XJxtSYBxKpUWIuyuPiLO6e4uXLD5M4uLHz5Cn9vSYBxKpUeNxsVnPSJM42+LjbyZiFE/wDWk6w4lUqLGLJ8QR5P7Q8Faxez9osqTAOJlIjx9+J9nkGxSYBxKpUWLK7pnsnfydMTsnN3+Lv8UmAcTKVFizp/b7FJgHEqlR8Nxs0nWHEylR47VJgHEylRYtxs0nWHEylRYtx8aUy0plpTLSmWlMtKZaUyg1IxGpJmOYiRjISeGZ20plpTLSmWlMtKZaUy0plpTLSmWjMoNSMRqSZpJiJGMpIoZnbSmWlMtKZRi4tLNZRsZu5eAlIZlELi0syjYzdy8BeQzKIXFpZrKNjN3LwEpDMohcWlmso2M3cvASkMyjFxaWayjYzdy8BKQzKIXFSzWUbGbuXgJSkTkUztpyXYpGYxmNwGQERSu2nImKRmNpjcBkBOUztpy3YpGY2mNwGQERTO2nImKRmNpjcBkBEUztpyJilZjaY3AZARFM7aciYpBY2mNxA2/wCb/8QAJxEAAgECBQUBAAMBAAAAAAAAAAECAxEEEBIgMRMUIUFRMgUiQFD/2gAIAQMBAT8BzwfsQyXOxciyxnC24P2IZLnYuRZYzhbcH7EMlzsXIssZ624P2IZLnYuRZYz1twfsQyXOxciyxvrbg/YhkudkeRLLGLwtuD9iGS52U/2s8Z+NuD9iGPnb1J/TqT+jnJ87cIlpbFlUVpNb7baFaMFZnd0zvKZN6pN/8qGHqTV0iUXF2e6CvKx2tP4dtT+GIpQjG62R58lCdOUOT+Q6PjQ77oO0s8W/6rbCnOX5O3qfDt6nwat42LkQzGcLbg/xnV/b2RfkQzGcLJybIzLowT5ybJ1HqHNsUmOVyPIuBmOlZI6hYUGRpSbsYOnovkxUHLyNWFBs6bHQcfLI8DMXSc7WJw0uxUjGysUVF/o8alYocvOCeljguncpRTdmVEl4Kl/F8mVb2IQi29WzBe8mNu5qdrCbXA5N+WJtsXAzFNq1hu521X4dtV+Hb1PhhKUo3uWNLJYepfg7ep8O3qfDtqnwWHqX4EmNMxNKckrHb1Pgqc/ZomxwmaJihMUJ+zRNjhM0TFCaFCZomxwmaJoUJ/7/AP/EACoRAAIBAwQCAgEDBQAAAAAAAAABAgMEMhESIDETIRBRIgUUQhUwQEFQ/9oACAECAQE/Afm+xQylkhdcamT+LDF8b7FDKeSF1xqZP4sMXxvsUMp5IXXGpk/iwxfG+xQynkhdcamT+LDF8b7FDKeSF1xqZP4sMXxvsUMpZIXXGcXqzYyx9JrjfYoZTyQuEuh6nssNdXrxvsUMp5IXHbH6NsfoSS43r6R+JGUUyPtf3Lig6vR+wl9n9Pl9kVotP+VKrCL0bE9euUnoh31QV7ULavKo/fGrTkqmpb7/AOXJ9E9qYtpZJe3xlOMezzU/s80PvlVyYixxfG/TbQosSZDFcHFoq5MRY9P4UUiUEKLL/wBRRuZTf5IjSWhGCQ4JkYpEuitmxH6dHVM8QnqOokSrRitS/q+SPxTyRK5UPRGWo6iR5YkblTeiK2bEWNZU4vUp1FJalKctXuK03/A1/F6lxh8Q7RUknMVR+TaVanpuJTn/ALkUpRWpUyEUdNvsnUlCK2lS5qVO2QrThixzk3q2KcpL38RFVlB+iVxOQpyQ5tikyXYiUnFaolUlLtnikeKR45EYPQ8bFFjpy1PHI8cjxyFTkSg9RQZODaPFI2zNszbM2zNszbM2yNsjbM2zNszZI2zNszbP/P8A/8QALRAAAgAGAgAEBgEFAAAAAAAAAAECETAxMjMgIQMQQEESImFxgZGhEyNRYHD/2gAIAQEABj8CpxV3XiruvFXiruu67ruu67ruu68VeKvFXirxV4q8VeKvFUsYGsa+GvFVsYofyKvFVujJD+ZV4vRLzlRi9ZZmLGlya9LYxMEP+2qcvbip+9F8X6Dt07syf7Mov2ZRfv8A5D14Rq/k1/yYGNKSUxKSm/qfDGpOtD9q2pff4iHx/azInDE23bq1ZLs9/O9L5vEjl9ySi/B71lNGB1AdL1a4OnqiNURqiMGYumq6+1dV12y5cuXpqh3z7RiWLc+vSL1y9axcUl/gb+hLmxcnyimzsYuDFM/A/pw/Jefl0Lj+Byt5fjz97D8n0hcUY+w/t5s97+WKGLjirIY70FzZN81wdNV1XVdcHw1RGmI1RGqI1RGqI0xEn4MZojNMZqiNURqiNMRpiNURpiNURpiNURqiNURJ+DEaYzTGaojVEaojVEaoibbmShZk5Fy7JtskmZORcuztskmXci5dnbcyULMnIuXZNtkoWXci5dk22STMnIuXMJGJJeEYmswMSS8MxNZgYkv6ZiazqCRiSXhmJrMDEkvDMTXM6gkYnXhncJ3B/rf/xAAqEAACAgEDBAICAgIDAAAAAAAAARExIRAwQSBRYXGR8YGhscFA0WBw8P/aAAgBAQABPyHqdFZZdBCrZdFXTAqlsuiosUWqlS2XRSX6AaNl0yrRRa6VL1sumVFugKjZdMq6bap62XRSX6AaNl0yguuhFUvWy6KC/QKqbLplBw6EVS9bLplBboJVNl0yg4FFqlUvWy6ZQW6CVTZdMoOBw1Eqetl0UFugJU2XTKDgcNVKnrZdFBcrrBU2XTKDicNRKmy6KC/RgqbLplRZHDUSp62XRQX6MFTZdMqLIotXUetloZiIYYrlZ3dkSJGTKkeF7CQKYMxFRZFNRUetm4ojsBm1Hr+IR7B2ME/b2XWhZFdRUetmwSUsof3XyJH+wQv5Dxw7lH7ey6KCy6DlT1stSsnh0oefk/L5IefkSSrRs0mMauaRWOh0VFl0HKnr/IaGEIsa8i/LhbAqwcseV6cKJz0w4neuEULA7aF8g/ZJs4TFNeXtNyzw46GQK2KmWmwxTVjSHY5pQdoYWNCrlQohx3c78DM4ULZalQz2fJh/tJCkzICSSF/0+3CkQmyH5IeXwHc/QWH7D5P3MhsqSTdkOPvpSDV/Gd11+dAqzkczkU7OO5sspkYqBjxYKDJZW48SHMWK0D3cZYY3CrZwjPgU9rFD/wBGJQo3HTHYtmcKLcCJWFCKeCj/ACHT1nVl9EqbLcISSmLQneB2jbSwRMtl09Z0ZyLRU2XS9n6YYdnI7uM/l2XT1nUsy0VNnBSKZzJdigf4Ks1wfabA2mm9JzrOhZlhRrzjxaA99YlMRnMzOgkwaoLPCGNIR4xwQ4GxVoHTkSSrRU2KNdyLiAG4TPphO2S7ixn72nU5F4sLsuxR713MuK9ILjrksn7WhVnIvKTyF9TVbIMgo967mXCRLL4ElHorTQRksl4eCRSdKRs2H515VlmWiyAJ0xDsJxo/LGxmLMsauxnOacMyK9V8yzLCGbapMmK18CRqRmSdqSYlJeKGcVJCCFx8kh4DEU1qyrOWmm8UDxszh+TCuEmHbzpPY1wZI1AZSXIeF2jJ7jDS+ZZlgo+HQb8BCa2sYINOZl8iw5G5YuUDhKlNQpHhvCrkxvAtT1ZZlx2E45JTw8yETn0IVmuRhHPPFHCXtHkcL8HLuI5GD9zToy7LBYAOYozQkvL5dbpj6fVlmXDtJQcE+B6w5UD+Q0UtLkUw4udPMx867oyz0jYWWNI9h09fVZZlpRsunrOjLMsFS2XWu2wy5cUbLp6nqyz0lGv1Z9afVn1Z9WfXn1pDMI8H9ASr+MqvjHFfpEpf1n1p9afVn1p9WfWn0el4f6yHwPggX6xFj4yg+MaEvjFF/UfVn1ZPGbyPyk8syT8ovmx5MKR4TJYz9jVzu5/IAZ9tjyYx4FJJHm/I/LT3P5FBOZoRhPgSZJHm8j8pPLM4/KE5mx5MJ9CZNGfsflJ7n8yhftgwj0JiKWfsblp7n8wAiRtjyTGaRCF8heczBgvZIHh2HE5P2Q1R/JnlmrH2Sh4dhxOT9kZUPyXGYsx9koePaRxOT9kP9qTPLn+SrH2Sh4dhxOT9kLUfyZ5c/wAlSPslDxHE5PZAvlCnlzIJh9kowexI8v5/43//2gAMAwEAAgADAAAAEPffQ+flPffa6K7Pfff1bKlPffa8rdPfffxdPtPffayx3vfff1QOlvffa61//fffVxLlvffa/wA0/wB999XI68999ub4R999tzWG+9998BTF9919Su2e999sssvt999+8sX9999d98999tl1le999999c9999999999999999999999999999999999w399999+im5999+ui9999964Uk9999/713999rSNq959/3bJ999/sMR+9+IyoKSd+P+9DZzH05xKNJDQ22Kf9fR7ZhXt0AKdNcv5gXBQA05cxjAAyZBJjNLPiezGPHPP+fIHJYwCiHgHK2Ojn7iAAQggAABBIAAAMBAAAAAAAAAAAAAAA/8QAIxEAAgIDAQADAAIDAAAAAAAAAAERMRAgIUFRYXFAoVCBsf/aAAgBAwEBPxDNMVGW6VFELaUx0ZbpUeBbSmOjLdKiiEV1Ux0ZbpVgqK6qY6Mt0qPAimqmOjLdElUhkIQ6TWmOhbp/cFIkU/utMdC7RNpyj7h9w4LTqp8gZDSZ+ibyanV7FI8Z9DFofd5df4OgIhzD2UpsKEIaYc6QSeBR5SF6TNoBiaaHCFpS91TykrPbGlelRVbjd+jIcn97MwIaQVWgMBicMaidRwxSNNiEvRwfkqwdFKUNlY0pEKFj4n7ijGz8dHtDEEnWuCNfIUYISY0KgaMT1KkaekngzkPvwgo9FGgSQ+UL/sfECrBGSP8Ah9nfzMnQ8PQs6TG/rweyw5k6JCbKsFrMMaXoT+GwTGzwbd6PkujEbCiTMY0mUY2upwM8SY0qEmJKnJLlGN6nAzxJjQoSYkmGNOWmN6nBRSZA4mJdaZJJJJOJJ1kkl/wP/8QAJBEBAAIBBAMAAgMBAAAAAAAAAQARMSAhQaEQUWEwcUBQgdH/2gAIAQIBAT8Q1CsGhwzuRzpB5HvTBocM7kc6YeR70waHDOxHOmHme9MGhwzsRz+CD3pi0OGdiOfwQe1MGh2GMqj64VTOse9MDRnhSxJOtB70wNPyT5JhDSe4ReZAqEdLrsxpUFVUfShZcVa4/qsoEAXqIiQam0X6jQ46HDUJAbm00o1G0QNKY/Vm2NOW1PlnxQRLNDidrVBKgJ6cvG06nkFxANydrRRlBHFmYvBC8Rh7YiC8ytvwuSJhYC87XiV6Z5gCyNVGtsQTThhmdyVXPaAbIzU2M7xJ6or/AHePsxAcDRUH+SiKu/8AZsHnXyACVW/MMxyKOccy7ttKGt4licPyOIa29x2nxQ/6VOOVfuBVtS/KJv6MQruGZkRpeDbu/vmO7MzbEILM3iKWcnT4z4z5w7GETsWkJ8J8p8oJuomx4oUPA4AZUQ+0ud7inDNigYGYYZ2XO8fRHAQEhmRlzuR9DK8VKlaqPNH8H//EACoQAAIBAgYCAwACAgMAAAAAAAABESExEDBBUXGhgbEgYZFA8FBwwdHx/9oACAEBAAE/EPld4w1UW5Yj0n93JY4WTc4PcLZpPWdU6yybvGEWFeIVDpLJucFRJCmnD650Fk9I7hesB68J0mT0j2C2aB7DqHQyekP+hchqJHrOqdBk3eBe4sliEnwFp/R0Fk9I7DwFiPUdc6TJucHuFk0Fzg6J1Fk9I7BeLEz1HXOkyekUeUtmgu8FXGdRZPSO0X4B6DrnSZPSPZLZo4Lp0zqLJ6WCvFgvcHQOiybnB7hbLEXOB54DqLJ6WCvFgv8AB0Dqsm5we4WR6BauBfyOosnpYK4WC9wdA5lFk3OD2CwWrC6x1lk9I72EsF7geOA67JSrg7DLBaj1HWOosnpHexgv8HSOm9ZKHloEppV9DuV4QiCFYv5FqeEFJLRkU9ScS7ImTpxSVqdzCNCF7gq4zovWU0XgQ01KPwNavlF9YbCll0FSSol7sm7wWecNaLnB1jpslZCkLG5IUp5QQilXiQMHxFd7WXY/st3hHzu8Hawmg9Z0DrslDEkp6FCPc2E/0+79CG/6Emv6CGLMHNSJYULFsEJm5Sq/hd4O9hkses6B138hDDcKBWZDl6Egco2QjeCI6QLMkUkQyrQvjbKYlqq4+MFBw9c1JtwqiUWWgtsOVI8CpT+UQ8nwJYhpnYVJrKL9ym0kyVs+CEuWQkJVQhqNHtkWgzlD66Zy4QxE0GWocWUoQJF2l5IJFVqXy235kvOTacq5ae0jsslDqiYlWa8BaCvMSbJ8j/2I2qG5czTJ/p+bg29h4SiU4jviL7oLnrxGmmUXpFKjE5P1Q9mBFwzVEt2tiNOVo5bh65trh7F/J6Nw8CTYd5KVolduFyOzajRZa+qdFW5pxDvV1uNiLwkFeG9xlInOYido0yZ3Sm0hK4X4FLajyP3aTkJbJzSahlehcVIS2g5yGR+biko0e4i9WuZqq0Gs1zLJq2+WOT/WHQBSkp9CJQbLKptndI98tcYaEsB1FkzTifpCO+LNJVIv+tC6k8Itk/CzqPoULWT0j3y2MF+B9RZPUexF/csMU1ZMqfoy3Lfo8zVlacsnpHfZb4Fq4xh6q+EPb4vDoTT7FXiKYWv9InvQSMfljbcfqW+XjBGLKEPqQjE0FlPJY4LsChQfQWNPoEhREnGqMhDxaJPYmGjcslDLbjZOvJPJfkb6U1aEIG8holw/Rw26JCeIPkj0FwUpbwPU4SFsIlhKCToUr+37GoLGXms26asi/IT0XwW9RXQZEkxRTAY0SouS84os0HqHl8jvoUilFFhb59QT9HsXoai7AOihpNQ1KFZIvjA3ClkRjMM7L2Np2w1w7S9jxwIa200oJpE05T+VpEVymh2ns9RqLsAj0VBrxGCJtUjfBDXXuboJV1mkugkb1cD5RySdVVOC9YoNgeTGJo68C8JoZdUiJFWwmnZikhVEsTjgigrG6MdEk5IcirIcTTd5EqpDqqF9u2+z0F4ScAyOYiN6MapBNOIsFuVxJUSbfohe1Sd8pF0Jfo2JWF3HQlyOHFRuJuo0iey+K/EUrj1BZiuMacDTw/54JGeKng2OFruM3Ju6RFNEU5+xdSiwpuSkzQc7ilcLqeNRUrQmcSI0Ho2uz0C4FSKq6qT51HAjTOhihOTw6izWJDh+A8exk24iSeTkglXWRxumi5fYuWyXQQ4xNZOx7x6vhpUdBXVtlirQ28JuJ4J+xWNEUPtYlJxoRxGr2DwVHggiREtUsInotb6JKJc5S0PCl8JSY0FUJnJKmxqTQqUpujWiB1xjHrE3mFjwxkpFhM04uilViKJ0E5G8nYZGTBLBqqiMprZyM9M2oWuFzW+x20zdXqJ+zxtQD/kKzOUKai0E13cvI6wvcWeBYwJZnQWT1j2RMUiSPWWTc4Pb9ljjALgtU6CyesLHkPViA/4HSWKaqO4+ARHfTc4CNyaAzPGpCLMcpCncPm0wvCmympyJYhAQykCjR2AW+oJtneBsYjOVcrCaH8FuSXJeuPIl4HSoVVOiksXGRYhZtQTPag7E6QW7kJljJSama9yECTEqzahPvbkdiftKOW5C6QJCmplLKXQY2LCdCJffCOxNGtLuROYhCl1Y9NZNwwIZgs2oT+kEOxJkEu5kxjJSamUlpcJgnAO7UFr3ijsSRrS7kJmhJSXVlFaaJgkpKs7BQ90I7FTpS7kU2yUmpj7BLJMZ12dJUhVgql1F1BCFDdLSsOTppvQM069RTyKy63EpFIKTeiVh4dNJuwcl3eoV4FNa3EpNIhx9NAdnXTegYJh/gKPcJa1COgkFttaVhgfbPQMC09RL9yYQkUgZvpEmODroN2DTMPUN6wrUUFUmiFslZKwqw27iFsQtimxC2IWxC2IWyIWxC2RC2IWxC2IWxCIWxC2IWyI+iPohbELYhbEEEfRH0QtiPoj6I+l/Dkn5z/gv/9k=;" vertex="1" parent="1">
          <mxGeometry x="104.44" y="117" width="65.44" height="103" as="geometry" />
        </mxCell>
        <mxCell id="huxlr9JHoWnAr4w4-cFv-37" value="" style="shape=image;imageAspect=0;aspect=fixed;verticalLabelPosition=bottom;verticalAlign=top;image=data:image/jpeg,/9j/4AAQSkZJRgABAQEAYABgAAD/2wBDAAgGBgcGBQgHBwcJCQgKDBQNDAsLDBkSEw8UHRofHh0aHBwgJC4nICIsIxwcKDcpLDAxNDQ0Hyc5PTgyPC4zNDL/2wBDAQkJCQwLDBgNDRgyIRwhMjIyMjIyMjIyMjIyMjIyMjIyMjIyMjIyMjIyMjIyMjIyMjIyMjIyMjIyMjIyMjIyMjL/wgARCAF1AO0DASIAAhEBAxEB/8QAGgABAAIDAQAAAAAAAAAAAAAAAAQFAgMGAf/EABoBAQADAQEBAAAAAAAAAAAAAAABBAUCAwb/2gAMAwEAAhADEAAAAYQ0PngAGOWNC9P6Dn+hyr8znOj5yZqB9FhhPIAAROFhX2ODt382FN8Oudp7en1qPo0M8AABhnhRvWPQc/f5N+bzvRc7M04+iwwnkAAInCxr7HA276bCmePXO09zTa1H0aGeAAAwzwo3rG/oL/Jvzed6LnZmnH0WGE8gABE42NdY4G1fzIcvx756muKfWo+jQzwAAGGeFG9Y9Bz/AEGTfmc70XOzNOPosMJ5AACJxsa6xwNq/lxJfj3ztPcU+tQ9GhQAAAYZ4UL1j0HP9BlX5nO9FzkzUD6LDCeQAAicbCvsMDa6CZCm+PfOVFvT61D0aFAAABhnhQvWPQc90OVfmc50fOTNP7579FhhPIAA8jrywq5OFtdVN5ff5d408iPqUPRfzwAGWI9154UL1jf0F/lX5vOdHzkzT++e/RYYTyAAwzw59M5UaZg7FhYwrLz694ruOH0Kvo1MsAzwAGGeFC/YdBz/AEGVemc70fOTNQ89+iwwnkAAE4++ue/PQ89J5Z4J5AAA81Z5Z+jts4FlnXc6zoNqeP8Acct/DDrhngAAPfMsQA9kJjBAADLEeZeYVbdha857Vsdrt4byJPPdPODrgAAAAD3PWSCAAAAAAAAAAAAAAAAAAAAAAAAAAAAAAAAAD2T5+8Vu09+QTyAAAA89857l+9dhkanI6r6qmIPvuFytmLlIAAI6vM6Rj/SWFXp3X80LWWAAAAxyc99BjAvMDcpoPQUqIRlo0vRoZwAAB5v49NLf5z1pZa5ZPPe/IJgAAIm16PnOk+d3YvP3/PxFdnhnq0Qv0B6eAA87vhOmzNOxqsoOdbjw9uj05w2a9m9jh15gDIxbdczadJzfSfObsXnuh5/mK3LHLVo+i/QkbsluvrjTceeoLZs8PWPNjWOfoWOi6i5GhzMKzrvbjZnJy+m+fiSM3fGOremI0j0McvJb+j5zo/kfpYvP39Byrd+mx2c6H5O80s71jl7eZp1cdS2vDnrZJgT8fV6SHLh5N6hrrCv9+LHzT79Dib2ndarmvRzMtoyidnmrHw9p/R850fze7EoL+g5V0+vl6tHf7o3bGVG82aKNr3ZqkRPmPuPn3lOhzKV3o4kuLQs89XWVb7cyc8N2pnx8j28cWO3rj1lq8PbdHmROe7Hpea6TJ0olB0HPxFbNhWNzxjbde+7RiDHqvPXMhw8tKu09b/SRZUbi/wA9W2Nd687MsffPFyYphng82zWHuPvibXo+c6P024vP9Bz5XbdOzqjl4eNA2OvbW2ew1Ng1WtfN9LvTxNOhdq66yid8Ye7Hjla2xHOtt8NbYNfm1M2HR8xbemxv561qkV+eeU1Nbb540uk1YxPLR22MSOeT4e5OUfVMhKq8vSbqxho3WUSPLGwhbYZx9M1Mqry9JurCIbrGJoRjPh7TOPpmplVnvheDStgPPR56HnoAAAgAEgAAAAgEgAAAAAAAAAAAAAf/xAApEAABAwMEAgICAwEBAAAAAAACAAEDBBEyEzAxMxIhEEEFIBQiQGBw/9oACAEBAAEFAv3HiJQo+Kvr2hxi5hR41fXtDjEoUfFX17QcRKFHjV9bcbI4xKFFxV9e0GMShR41fW3GyOMShRcVfX9bIcRKFHjV9bcbIYxKFFjV9e0GMShR41fX9bIYxKFFjV9e0GMShR8VfX9bIYxKFHxV9e0GMShR8VfX9bIYxKFHjV9f1shjEoUeNX1/WyGMShR8VfX9bIYxKJFjV9f1shjEoUeNX1/WyGMSiRY1fX9bI4xKFHjV9f1shjEokWNX1/WyOMShR8VfW3Gw/AlZhn8UFf4p/wAndTVOoLe2/dvbu1kOMShR41fW3GwWLIGZRgKGKNFDH4ttBjEokeNX1txsFiyBlGgIURj4ttBjEoUfFX1/Wz4srMrKyt8+Xzf+v6DjEoUfFX1/X+d+BJrBMIoK8BT/AJKN1NUjIDcfoz2b/EWLIRZBEDoaeJFTQ+LbV3t8s13khKLYZ7OftmZALqNnQIn/AK75GRbXiysva9r2uP8AyBqaodv4tQtCdk4SMv7Mme7bFnd/4015IziPdj6zUiNOgx2IoJ4gGRgkq54pW3H4H8lCwl+RhdFVxuimF15Chx2GkNlIQk1n3qaICAaSB2kpoWUgCyLhuP8ARSdYcSqVHj9bLQzOtCdaUrLxNl7TPdtmk6w4mUqPH62Y8DRujf4DHZpOsOJVKjx+th0P5CBhKugdFUxuikF1dkGP7M114OnZUnWHEylR4tx8MCsycGdO1v0p4AMBoYHaSjhFHEIomawj68HTBdMLLxZPGmD5fikwDiZSosWB7Wsrfo7XbxWmnF2VJgHEqlRcNxsfVJgHEylRYtwrfu5NakwDiVSouG48m/e7K92pMA4mUqLG/q9/hiv8Edl5umJPcncbBSYBxKpUXHsl4/1EvgisvN0xon9eD3v4qkwDiVSo8WB7YndMD2YnT86br2xM7XJxtSYBxKpUWIuyuPiLO6e4uXLD5M4uLHz5Cn9vSYBxKpUeNxsVnPSJM42+LjbyZiFE/wDWk6w4lUqLGLJ8QR5P7Q8Faxez9osqTAOJlIjx9+J9nkGxSYBxKpUWLK7pnsnfydMTsnN3+Lv8UmAcTKVFizp/b7FJgHEqlR8Nxs0nWHEylR47VJgHEylRYtxs0nWHEylRYtx8aUy0plpTLSmWlMtKZaUyg1IxGpJmOYiRjISeGZ20plpTLSmWlMtKZaUy0plpTLSmWjMoNSMRqSZpJiJGMpIoZnbSmWlMtKZRi4tLNZRsZu5eAlIZlELi0syjYzdy8BeQzKIXFpZrKNjN3LwEpDMohcWlmso2M3cvASkMyjFxaWayjYzdy8BKQzKIXFSzWUbGbuXgJSkTkUztpyXYpGYxmNwGQERSu2nImKRmNpjcBkBOUztpy3YpGY2mNwGQERTO2nImKRmNpjcBkBEUztpyJilZjaY3AZARFM7aciYpBY2mNxA2/wCb/8QAJxEAAgECBQUBAAMBAAAAAAAAAAECAxEEEBIgMRMUIUFRMgUiQFD/2gAIAQMBAT8BzwfsQyXOxciyxnC24P2IZLnYuRZYzhbcH7EMlzsXIssZ624P2IZLnYuRZYz1twfsQyXOxciyxvrbg/YhkudkeRLLGLwtuD9iGS52U/2s8Z+NuD9iGPnb1J/TqT+jnJ87cIlpbFlUVpNb7baFaMFZnd0zvKZN6pN/8qGHqTV0iUXF2e6CvKx2tP4dtT+GIpQjG62R58lCdOUOT+Q6PjQ77oO0s8W/6rbCnOX5O3qfDt6nwat42LkQzGcLbg/xnV/b2RfkQzGcLJybIzLowT5ybJ1HqHNsUmOVyPIuBmOlZI6hYUGRpSbsYOnovkxUHLyNWFBs6bHQcfLI8DMXSc7WJw0uxUjGysUVF/o8alYocvOCeljguncpRTdmVEl4Kl/F8mVb2IQi29WzBe8mNu5qdrCbXA5N+WJtsXAzFNq1hu521X4dtV+Hb1PhhKUo3uWNLJYepfg7ep8O3qfDtqnwWHqX4EmNMxNKckrHb1Pgqc/ZomxwmaJihMUJ+zRNjhM0TFCaFCZomxwmaJoUJ/7/AP/EACoRAAIBAwQCAgEDBQAAAAAAAAABAgMEMhESIDETIRBRIgUUQhUwQEFQ/9oACAECAQE/Afm+xQylkhdcamT+LDF8b7FDKeSF1xqZP4sMXxvsUMp5IXXGpk/iwxfG+xQynkhdcamT+LDF8b7FDKeSF1xqZP4sMXxvsUMpZIXXGcXqzYyx9JrjfYoZTyQuEuh6nssNdXrxvsUMp5IXHbH6NsfoSS43r6R+JGUUyPtf3Lig6vR+wl9n9Pl9kVotP+VKrCL0bE9euUnoh31QV7ULavKo/fGrTkqmpb7/AOXJ9E9qYtpZJe3xlOMezzU/s80PvlVyYixxfG/TbQosSZDFcHFoq5MRY9P4UUiUEKLL/wBRRuZTf5IjSWhGCQ4JkYpEuitmxH6dHVM8QnqOokSrRitS/q+SPxTyRK5UPRGWo6iR5YkblTeiK2bEWNZU4vUp1FJalKctXuK03/A1/F6lxh8Q7RUknMVR+TaVanpuJTn/ALkUpRWpUyEUdNvsnUlCK2lS5qVO2QrThixzk3q2KcpL38RFVlB+iVxOQpyQ5tikyXYiUnFaolUlLtnikeKR45EYPQ8bFFjpy1PHI8cjxyFTkSg9RQZODaPFI2zNszbM2zNszbM2yNsjbM2zNszZI2zNszbP/P8A/8QALRAAAgAGAgAEBgEFAAAAAAAAAAECETAxMjMgIQMQQEESImFxgZGhEyNRYHD/2gAIAQEABj8CpxV3XiruvFXiruu67ruu67ruu68VeKvFXirxV4q8VeKvFUsYGsa+GvFVsYofyKvFVujJD+ZV4vRLzlRi9ZZmLGlya9LYxMEP+2qcvbip+9F8X6Dt07syf7Mov2ZRfv8A5D14Rq/k1/yYGNKSUxKSm/qfDGpOtD9q2pff4iHx/azInDE23bq1ZLs9/O9L5vEjl9ySi/B71lNGB1AdL1a4OnqiNURqiMGYumq6+1dV12y5cuXpqh3z7RiWLc+vSL1y9axcUl/gb+hLmxcnyimzsYuDFM/A/pw/Jefl0Lj+Byt5fjz97D8n0hcUY+w/t5s97+WKGLjirIY70FzZN81wdNV1XVdcHw1RGmI1RGqI1RGqI0xEn4MZojNMZqiNURqiNMRpiNURpiNURpiNURqiNURJ+DEaYzTGaojVEaojVEaoibbmShZk5Fy7JtskmZORcuztskmXci5dnbcyULMnIuXZNtkoWXci5dk22STMnIuXMJGJJeEYmswMSS8MxNZgYkv6ZiazqCRiSXhmJrMDEkvDMTXM6gkYnXhncJ3B/rf/xAAqEAACAgEDBAICAgIDAAAAAAAAARExIRAwQSBRYXGR8YGhscFA0WBw8P/aAAgBAQABPyHqdFZZdBCrZdFXTAqlsuiosUWqlS2XRSX6AaNl0yrRRa6VL1sumVFugKjZdMq6bap62XRSX6AaNl0yguuhFUvWy6KC/QKqbLplBw6EVS9bLplBboJVNl0yg4FFqlUvWy6ZQW6CVTZdMoOBw1Eqetl0UFugJU2XTKDgcNVKnrZdFBcrrBU2XTKDicNRKmy6KC/RgqbLplRZHDUSp62XRQX6MFTZdMqLIotXUetloZiIYYrlZ3dkSJGTKkeF7CQKYMxFRZFNRUetm4ojsBm1Hr+IR7B2ME/b2XWhZFdRUetmwSUsof3XyJH+wQv5Dxw7lH7ey6KCy6DlT1stSsnh0oefk/L5IefkSSrRs0mMauaRWOh0VFl0HKnr/IaGEIsa8i/LhbAqwcseV6cKJz0w4neuEULA7aF8g/ZJs4TFNeXtNyzw46GQK2KmWmwxTVjSHY5pQdoYWNCrlQohx3c78DM4ULZalQz2fJh/tJCkzICSSF/0+3CkQmyH5IeXwHc/QWH7D5P3MhsqSTdkOPvpSDV/Gd11+dAqzkczkU7OO5sspkYqBjxYKDJZW48SHMWK0D3cZYY3CrZwjPgU9rFD/wBGJQo3HTHYtmcKLcCJWFCKeCj/ACHT1nVl9EqbLcISSmLQneB2jbSwRMtl09Z0ZyLRU2XS9n6YYdnI7uM/l2XT1nUsy0VNnBSKZzJdigf4Ks1wfabA2mm9JzrOhZlhRrzjxaA99YlMRnMzOgkwaoLPCGNIR4xwQ4GxVoHTkSSrRU2KNdyLiAG4TPphO2S7ixn72nU5F4sLsuxR713MuK9ILjrksn7WhVnIvKTyF9TVbIMgo967mXCRLL4ElHorTQRksl4eCRSdKRs2H515VlmWiyAJ0xDsJxo/LGxmLMsauxnOacMyK9V8yzLCGbapMmK18CRqRmSdqSYlJeKGcVJCCFx8kh4DEU1qyrOWmm8UDxszh+TCuEmHbzpPY1wZI1AZSXIeF2jJ7jDS+ZZlgo+HQb8BCa2sYINOZl8iw5G5YuUDhKlNQpHhvCrkxvAtT1ZZlx2E45JTw8yETn0IVmuRhHPPFHCXtHkcL8HLuI5GD9zToy7LBYAOYozQkvL5dbpj6fVlmXDtJQcE+B6w5UD+Q0UtLkUw4udPMx867oyz0jYWWNI9h09fVZZlpRsunrOjLMsFS2XWu2wy5cUbLp6nqyz0lGv1Z9afVn1Z9WfXn1pDMI8H9ASr+MqvjHFfpEpf1n1p9afVn1p9WfWn0el4f6yHwPggX6xFj4yg+MaEvjFF/UfVn1ZPGbyPyk8syT8ovmx5MKR4TJYz9jVzu5/IAZ9tjyYx4FJJHm/I/LT3P5FBOZoRhPgSZJHm8j8pPLM4/KE5mx5MJ9CZNGfsflJ7n8yhftgwj0JiKWfsblp7n8wAiRtjyTGaRCF8heczBgvZIHh2HE5P2Q1R/JnlmrH2Sh4dhxOT9kZUPyXGYsx9koePaRxOT9kP9qTPLn+SrH2Sh4dhxOT9kLUfyZ5c/wAlSPslDxHE5PZAvlCnlzIJh9kowexI8v5/43//2gAMAwEAAgADAAAAEPffQ+flPffa6K7Pfff1bKlPffa8rdPfffxdPtPffayx3vfff1QOlvffa61//fffVxLlvffa/wA0/wB999XI68999ub4R999tzWG+9998BTF9919Su2e999sssvt999+8sX9999d98999tl1le999999c9999999999999999999999999999999999w399999+im5999+ui9999964Uk9999/713999rSNq959/3bJ999/sMR+9+IyoKSd+P+9DZzH05xKNJDQ22Kf9fR7ZhXt0AKdNcv5gXBQA05cxjAAyZBJjNLPiezGPHPP+fIHJYwCiHgHK2Ojn7iAAQggAABBIAAAMBAAAAAAAAAAAAAAA/8QAIxEAAgIDAQADAAIDAAAAAAAAAAERMRAgIUFRYXFAoVCBsf/aAAgBAwEBPxDNMVGW6VFELaUx0ZbpUeBbSmOjLdKiiEV1Ux0ZbpVgqK6qY6Mt0qPAimqmOjLdElUhkIQ6TWmOhbp/cFIkU/utMdC7RNpyj7h9w4LTqp8gZDSZ+ibyanV7FI8Z9DFofd5df4OgIhzD2UpsKEIaYc6QSeBR5SF6TNoBiaaHCFpS91TykrPbGlelRVbjd+jIcn97MwIaQVWgMBicMaidRwxSNNiEvRwfkqwdFKUNlY0pEKFj4n7ijGz8dHtDEEnWuCNfIUYISY0KgaMT1KkaekngzkPvwgo9FGgSQ+UL/sfECrBGSP8Ah9nfzMnQ8PQs6TG/rweyw5k6JCbKsFrMMaXoT+GwTGzwbd6PkujEbCiTMY0mUY2upwM8SY0qEmJKnJLlGN6nAzxJjQoSYkmGNOWmN6nBRSZA4mJdaZJJJJOJJ1kkl/wP/8QAJBEBAAIBBAMAAgMBAAAAAAAAAQARMSAhQaEQUWEwcUBQgdH/2gAIAQIBAT8Q1CsGhwzuRzpB5HvTBocM7kc6YeR70waHDOxHOmHme9MGhwzsRz+CD3pi0OGdiOfwQe1MGh2GMqj64VTOse9MDRnhSxJOtB70wNPyT5JhDSe4ReZAqEdLrsxpUFVUfShZcVa4/qsoEAXqIiQam0X6jQ46HDUJAbm00o1G0QNKY/Vm2NOW1PlnxQRLNDidrVBKgJ6cvG06nkFxANydrRRlBHFmYvBC8Rh7YiC8ytvwuSJhYC87XiV6Z5gCyNVGtsQTThhmdyVXPaAbIzU2M7xJ6or/AHePsxAcDRUH+SiKu/8AZsHnXyACVW/MMxyKOccy7ttKGt4licPyOIa29x2nxQ/6VOOVfuBVtS/KJv6MQruGZkRpeDbu/vmO7MzbEILM3iKWcnT4z4z5w7GETsWkJ8J8p8oJuomx4oUPA4AZUQ+0ud7inDNigYGYYZ2XO8fRHAQEhmRlzuR9DK8VKlaqPNH8H//EACoQAAIBAgYCAwACAgMAAAAAAAABESExEDBBUXGhgbEgYZFA8FBwwdHx/9oACAEBAAE/EPld4w1UW5Yj0n93JY4WTc4PcLZpPWdU6yybvGEWFeIVDpLJucFRJCmnD650Fk9I7hesB68J0mT0j2C2aB7DqHQyekP+hchqJHrOqdBk3eBe4sliEnwFp/R0Fk9I7DwFiPUdc6TJucHuFk0Fzg6J1Fk9I7BeLEz1HXOkyekUeUtmgu8FXGdRZPSO0X4B6DrnSZPSPZLZo4Lp0zqLJ6WCvFgvcHQOiybnB7hbLEXOB54DqLJ6WCvFgv8AB0Dqsm5we4WR6BauBfyOosnpYK4WC9wdA5lFk3OD2CwWrC6x1lk9I72EsF7geOA67JSrg7DLBaj1HWOosnpHexgv8HSOm9ZKHloEppV9DuV4QiCFYv5FqeEFJLRkU9ScS7ImTpxSVqdzCNCF7gq4zovWU0XgQ01KPwNavlF9YbCll0FSSol7sm7wWecNaLnB1jpslZCkLG5IUp5QQilXiQMHxFd7WXY/st3hHzu8Hawmg9Z0DrslDEkp6FCPc2E/0+79CG/6Emv6CGLMHNSJYULFsEJm5Sq/hd4O9hkses6B138hDDcKBWZDl6Egco2QjeCI6QLMkUkQyrQvjbKYlqq4+MFBw9c1JtwqiUWWgtsOVI8CpT+UQ8nwJYhpnYVJrKL9ym0kyVs+CEuWQkJVQhqNHtkWgzlD66Zy4QxE0GWocWUoQJF2l5IJFVqXy235kvOTacq5ae0jsslDqiYlWa8BaCvMSbJ8j/2I2qG5czTJ/p+bg29h4SiU4jviL7oLnrxGmmUXpFKjE5P1Q9mBFwzVEt2tiNOVo5bh65trh7F/J6Nw8CTYd5KVolduFyOzajRZa+qdFW5pxDvV1uNiLwkFeG9xlInOYido0yZ3Sm0hK4X4FLajyP3aTkJbJzSahlehcVIS2g5yGR+biko0e4i9WuZqq0Gs1zLJq2+WOT/WHQBSkp9CJQbLKptndI98tcYaEsB1FkzTifpCO+LNJVIv+tC6k8Itk/CzqPoULWT0j3y2MF+B9RZPUexF/csMU1ZMqfoy3Lfo8zVlacsnpHfZb4Fq4xh6q+EPb4vDoTT7FXiKYWv9InvQSMfljbcfqW+XjBGLKEPqQjE0FlPJY4LsChQfQWNPoEhREnGqMhDxaJPYmGjcslDLbjZOvJPJfkb6U1aEIG8holw/Rw26JCeIPkj0FwUpbwPU4SFsIlhKCToUr+37GoLGXms26asi/IT0XwW9RXQZEkxRTAY0SouS84os0HqHl8jvoUilFFhb59QT9HsXoai7AOihpNQ1KFZIvjA3ClkRjMM7L2Np2w1w7S9jxwIa200oJpE05T+VpEVymh2ns9RqLsAj0VBrxGCJtUjfBDXXuboJV1mkugkb1cD5RySdVVOC9YoNgeTGJo68C8JoZdUiJFWwmnZikhVEsTjgigrG6MdEk5IcirIcTTd5EqpDqqF9u2+z0F4ScAyOYiN6MapBNOIsFuVxJUSbfohe1Sd8pF0Jfo2JWF3HQlyOHFRuJuo0iey+K/EUrj1BZiuMacDTw/54JGeKng2OFruM3Ju6RFNEU5+xdSiwpuSkzQc7ilcLqeNRUrQmcSI0Ho2uz0C4FSKq6qT51HAjTOhihOTw6izWJDh+A8exk24iSeTkglXWRxumi5fYuWyXQQ4xNZOx7x6vhpUdBXVtlirQ28JuJ4J+xWNEUPtYlJxoRxGr2DwVHggiREtUsInotb6JKJc5S0PCl8JSY0FUJnJKmxqTQqUpujWiB1xjHrE3mFjwxkpFhM04uilViKJ0E5G8nYZGTBLBqqiMprZyM9M2oWuFzW+x20zdXqJ+zxtQD/kKzOUKai0E13cvI6wvcWeBYwJZnQWT1j2RMUiSPWWTc4Pb9ljjALgtU6CyesLHkPViA/4HSWKaqO4+ARHfTc4CNyaAzPGpCLMcpCncPm0wvCmympyJYhAQykCjR2AW+oJtneBsYjOVcrCaH8FuSXJeuPIl4HSoVVOiksXGRYhZtQTPag7E6QW7kJljJSama9yECTEqzahPvbkdiftKOW5C6QJCmplLKXQY2LCdCJffCOxNGtLuROYhCl1Y9NZNwwIZgs2oT+kEOxJkEu5kxjJSamUlpcJgnAO7UFr3ijsSRrS7kJmhJSXVlFaaJgkpKs7BQ90I7FTpS7kU2yUmpj7BLJMZ12dJUhVgql1F1BCFDdLSsOTppvQM069RTyKy63EpFIKTeiVh4dNJuwcl3eoV4FNa3EpNIhx9NAdnXTegYJh/gKPcJa1COgkFttaVhgfbPQMC09RL9yYQkUgZvpEmODroN2DTMPUN6wrUUFUmiFslZKwqw27iFsQtimxC2IWxC2IWyIWxC2RC2IWxC2IWxCIWxC2IWyI+iPohbELYhbEEEfRH0QtiPoj6I+l/Dkn5z/gv/9k=;" vertex="1" parent="1">
          <mxGeometry x="90" y="127" width="65.44" height="103" as="geometry" />
        </mxCell>
        <mxCell id="huxlr9JHoWnAr4w4-cFv-41" value="" style="edgeStyle=none;orthogonalLoop=1;jettySize=auto;html=1;rounded=0;" edge="1" parent="1">
          <mxGeometry width="100" relative="1" as="geometry">
            <mxPoint x="195" y="144.5" as="sourcePoint" />
            <mxPoint x="230" y="144.5" as="targetPoint" />
            <Array as="points" />
          </mxGeometry>
        </mxCell>
      </root>
    </mxGraphModel>
  </diagram>
</mxfile>
